<svg width="124" height="23" viewBox="0 0 124 23" fill="none" xmlns="http://www.w3.org/2000/svg">
<g clip-path="url(#clip0_1_960)">
<path d="M12.5187 17.0137C12.1311 17.9191 11.5394 18.7234 10.7896 19.364C9.59694 20.3773 8.07858 20.9295 6.51148 20.9198C5.64031 20.9242 4.7772 20.7533 3.97389 20.4173C3.20326 20.1 2.50013 19.6396 1.90195 19.0606C1.31341 18.4856 0.841076 17.8033 0.510573 17.0508C0.17374 16.2725 0 15.4338 0 14.5862C0 13.7386 0.17374 12.8999 0.510573 12.1216C0.841359 11.3704 1.31369 10.6894 1.90195 10.1155C2.50025 9.53641 3.20333 9.07562 3.97389 8.7576C5.39917 8.17353 6.98297 8.09744 8.45801 8.54218C9.0598 8.72489 9.63106 8.99561 10.1531 9.34549C11.1842 10.042 11.9983 11.013 12.5029 12.148H10.2974C9.90603 11.5058 9.36055 10.9707 8.71008 10.591C8.04527 10.1986 7.28532 9.99531 6.51275 10.0031C5.90775 9.99943 5.30881 10.1234 4.75527 10.3668C4.21761 10.6 3.73033 10.9349 3.32039 11.3528C2.91031 11.7733 2.58193 12.2659 2.35186 12.8056C2.1153 13.3699 1.99348 13.9755 1.99348 14.5871C1.99348 15.1988 2.1153 15.8043 2.35186 16.3687C2.58245 16.9081 2.91077 17.4006 3.32039 17.8214C3.73061 18.239 4.21781 18.5738 4.75527 18.8075C5.80319 19.2593 6.98564 19.2903 8.05597 18.8942C8.53652 18.7152 8.98247 18.4549 9.37423 18.1248C9.74933 17.806 10.0714 17.4299 10.3283 17.0106L12.5187 17.0137Z" fill="#202124"/>
<path d="M29.3924 8.104H27.4824V20.881H29.3924V8.104Z" fill="#202124"/>
<path d="M92.9814 8V20.9856H94.7843V12.9367L101.497 20.9856H104.004L92.9814 8ZM102.093 8V18.7502L104.004 20.9856V8H102.093Z" fill="#202124"/>
<path d="M23.4431 8.104V13.4113H17.6458V15.2327H23.4431V20.8854H25.3531V8.104H23.4431ZM14.4434 20.881H16.354V8.104H14.4434V20.881Z" fill="#202124"/>
<path d="M50.1374 13.0328L53.8515 8.14757H51.6731L48.0655 12.9838L48.9414 14.5979L52.227 20.8731H54.2435L50.1374 13.0328ZM45.1328 20.9855H47.0434V8.10986H45.1328V20.9855Z" fill="#202124"/>
<path d="M107.982 8.104H106.071V20.881H107.982V8.104Z" fill="#202124"/>
<path d="M43.4757 17.0939C43.3836 17.3088 43.2797 17.5185 43.1644 17.722C42.7962 18.3735 42.3163 18.9557 41.7466 19.4423C40.554 20.4556 39.0356 21.0078 37.4685 20.9981C36.5973 21.0025 35.7342 20.8316 34.9309 20.4956C34.1603 20.1783 33.4572 19.7179 32.859 19.1389C32.2704 18.5639 31.798 17.8816 31.4676 17.1291C31.1308 16.3508 30.957 15.5121 30.957 14.6645C30.957 13.8169 31.1308 12.9782 31.4676 12.1999C31.7984 11.4487 32.2707 10.7676 32.859 10.1938C33.4573 9.61474 34.1603 9.15396 34.9309 8.8359C36.3562 8.25187 37.9399 8.17557 39.415 8.61985C40.0169 8.8025 40.5881 9.07324 41.1101 9.42318C42.1412 10.1194 42.9554 11.0902 43.46 12.225H41.2544C40.863 11.5829 40.3175 11.0479 39.6671 10.668C39.0021 10.2756 38.2419 10.0723 37.4691 10.0801C36.8641 10.0763 36.2651 10.2003 35.7116 10.4438C35.1738 10.6768 34.6863 11.0115 34.2762 11.4293C33.8661 11.8497 33.5377 12.3423 33.3076 12.882C33.0711 13.4464 32.9493 14.0519 32.9493 14.6635C32.9493 15.2752 33.0711 15.8807 33.3076 16.4451C33.5381 16.9846 33.8664 17.4771 34.2762 17.8978C34.6865 18.3156 35.1739 18.6504 35.7116 18.8839C36.7596 19.3357 37.942 19.3667 39.0123 18.9706C39.4929 18.7916 39.9389 18.5314 40.3306 18.2012C40.7058 17.8824 41.0277 17.5063 41.2847 17.087L43.4757 17.0939Z" fill="#202124"/>
<path d="M60.293 13.4136L62.4128 15.9648V20.9361H60.293V13.4136Z" fill="#202124"/>
<path d="M75.366 8.05366V20.9362H73.3552V13.3521L67.8301 19.7315L66.5137 18.2128L60.3143 10.9623L60.291 8.05176L67.8301 16.6056L75.366 8.05366Z" fill="#202124"/>
<path d="M116.633 19.0667H120.225L116.633 12.855L111.524 20.9535H109.266L109.38 20.7651L116.633 8.79199L124 20.9554H116.633V19.0667Z" fill="#202124"/>
<path d="M84.1912 19.0667H87.7831L84.1912 12.855L79.082 20.9535H76.8242L76.9388 20.7651L84.1912 8.79199L91.5583 20.9554H84.1912V19.0667Z" fill="#202124"/>
</g>
<defs>
<clipPath id="clip0_1_960">
<rect width="124" height="13" fill="white" transform="translate(0 8)"/>
</clipPath>
</defs>
</svg>
