<svg width="180" height="19" viewBox="0 0 180 19" fill="none" xmlns="http://www.w3.org/2000/svg">
<path d="M18.1723 13.1493C17.6098 14.4637 16.7508 15.6311 15.6623 16.5611C13.9311 18.032 11.727 18.8335 9.45217 18.8194C8.18756 18.8259 6.93467 18.5778 5.76856 18.09C4.6499 17.6294 3.62923 16.9611 2.76089 16.1207C1.90657 15.2859 1.22092 14.2955 0.741155 13.2031C0.252205 12.0734 0 10.8559 0 9.6255C0 8.39509 0.252205 7.17767 0.741155 6.04789C1.22133 4.95738 1.90698 3.96882 2.76089 3.13582C3.62941 2.29517 4.65001 1.62628 5.76856 1.16464C7.83753 0.316787 10.1366 0.206344 12.2778 0.85193C13.1514 1.11716 13.9806 1.51014 14.7384 2.01803C16.2351 3.02903 17.417 4.43857 18.1495 6.08618H14.9479C14.3798 5.15398 13.5879 4.37727 12.6437 3.82599C11.6786 3.25646 10.5755 2.96131 9.45402 2.97261C8.57579 2.9673 7.70636 3.14721 6.90282 3.50051C6.12234 3.83916 5.41501 4.32523 4.81994 4.9319C4.22465 5.54227 3.74797 6.2573 3.414 7.04076C3.07061 7.85999 2.89377 8.73901 2.89377 9.62687C2.89377 10.5147 3.07061 11.3938 3.414 12.213C3.74873 12.9961 4.22532 13.7109 4.81994 14.3218C5.41541 14.928 6.12265 15.414 6.90282 15.7532C8.424 16.409 10.1405 16.4541 11.6942 15.879C12.3917 15.6192 13.0391 15.2414 13.6078 14.7622C14.1523 14.2994 14.6198 13.7535 14.9927 13.1448L18.1723 13.1493Z" fill="#545B63"/>
<path d="M42.6661 0.21582H39.8936V18.7632H42.6661V0.21582Z" fill="#545B63"/>
<path d="M134.974 0.0649414V18.915H137.591V7.23116L147.334 18.915H150.974L134.974 0.0649414ZM148.201 0.0649414V15.6702L150.974 18.915V0.0649414H148.201Z" fill="#545B63"/>
<path d="M34.03 0.21582V7.91996H25.6145V10.564H34.03V18.7696H36.8026V0.21582H34.03ZM20.9658 18.7632H23.7393V0.21582H20.9658V18.7632Z" fill="#545B63"/>
<path d="M72.7804 7.37077L78.1719 0.279339H75.0096L69.7728 7.29965L71.0443 9.64281L75.8137 18.7519H78.7409L72.7804 7.37077ZM65.5156 18.9151H68.2891V0.224609H65.5156V18.9151Z" fill="#545B63"/>
<path d="M156.748 0.21582H153.975V18.7632H156.748V0.21582Z" fill="#545B63"/>
<path d="M63.1098 13.2656C62.9762 13.5776 62.8253 13.882 62.658 14.1774C62.1234 15.1231 61.4268 15.9683 60.5998 16.6746C58.8686 18.1455 56.6645 18.947 54.3897 18.933C53.1251 18.9395 51.8721 18.6914 50.706 18.2036C49.5873 17.743 48.5667 17.0746 47.6984 16.2342C46.844 15.3995 46.1583 14.4091 45.6787 13.3167C45.1897 12.1869 44.9375 10.9695 44.9375 9.73907C44.9375 8.50866 45.1897 7.29121 45.6787 6.16143C46.1588 5.07089 46.8444 4.08232 47.6984 3.24936C48.5669 2.40875 49.5875 1.73987 50.706 1.27818C52.775 0.430393 55.0739 0.319627 57.2153 0.964548C58.0889 1.22969 58.9181 1.6227 59.6759 2.13067C61.1726 3.14128 62.3545 4.55052 63.087 6.1979H59.8854C59.3171 5.26581 58.5253 4.48912 57.5811 3.93772C56.6158 3.36807 55.5123 3.07292 54.3906 3.08433C53.5123 3.07881 52.6428 3.25873 51.8394 3.61224C51.0586 3.95046 50.351 4.43624 49.7556 5.04274C49.1603 5.65311 48.6836 6.36811 48.3497 7.15157C48.0063 7.97081 47.8295 8.84982 47.8295 9.73768C47.8295 10.6255 48.0063 11.5046 48.3497 12.3238C48.6842 13.1069 49.1608 13.8218 49.7556 14.4326C50.3512 15.0391 51.0588 15.5251 51.8394 15.864C53.3606 16.5198 55.077 16.5649 56.6307 15.9899C57.3283 15.7301 57.9757 15.3523 58.5444 14.873C59.0889 14.4102 59.5563 13.8643 59.9293 13.2556L63.1098 13.2656Z" fill="#545B63"/>
<path d="M87.5225 7.92334L90.5996 11.6268V18.8431H87.5225V7.92334Z" fill="#545B63"/>
<path d="M109.403 0.142891V18.8434H106.484V7.83423L98.4634 17.0947L96.5525 14.8901L87.5534 4.3651L87.5195 0.140137L98.4634 12.557L109.403 0.142891Z" fill="#545B63"/>
<path d="M169.305 16.1293H174.519L169.305 7.11234L161.89 18.8682H158.611L158.778 18.5947L169.305 1.21436L180 18.8709H169.305V16.1293Z" fill="#545B63"/>
<path d="M122.214 16.1293H127.428L122.214 7.11234L114.797 18.8682H111.52L111.686 18.5947L122.214 1.21436L132.908 18.8709H122.214V16.1293Z" fill="#545B63"/>
</svg>
