<svg width="34" height="35" viewBox="0 0 34 35" fill="none" xmlns="http://www.w3.org/2000/svg">
<mask id="path-1-inside-1_101_385" fill="white">
<path fill-rule="evenodd" clip-rule="evenodd" d="M5.39043 26.9577H28.6094C29.3642 26.9568 30.0877 26.6566 30.6213 26.1229C31.155 25.5892 31.4551 24.8656 31.4559 24.1109V9.77107C31.4551 9.01635 31.155 8.29277 30.6213 7.75908C30.0877 7.22539 29.3642 6.92518 28.6094 6.92432H5.39043C4.63571 6.92518 3.91216 7.22539 3.37852 7.75908C2.84488 8.29277 2.54474 9.01635 2.54395 9.77107V24.1109C2.54474 24.8656 2.84488 25.5892 3.37852 26.1229C3.91216 26.6566 4.63571 26.9568 5.39043 26.9577ZM4.80922 8.11169C4.99427 8.04673 5.19058 8.01253 5.39043 8.01232H28.6094C28.8097 8.01253 29.0065 8.04688 29.1919 8.11214L16.9998 18.8738L4.80922 8.11169ZM3.93233 8.78914L11.6786 15.6271L3.72878 24.6851C3.66544 24.5021 3.63213 24.3082 3.63195 24.1109V9.77107C3.63227 9.41866 3.73826 9.07724 3.93233 8.78914ZM16.6397 20.0064L12.4947 16.3475L4.40401 25.5661C4.69302 25.7621 5.03617 25.8693 5.39043 25.8697H28.6094C28.9732 25.8693 29.3252 25.7563 29.6189 25.5501L21.5268 16.33L17.3605 20.0078C17.2608 20.0953 17.1325 20.1432 16.9998 20.1424C16.8672 20.1425 16.7392 20.0941 16.6397 20.0064ZM22.3429 15.6096L30.2813 24.6546C30.338 24.4806 30.3677 24.2973 30.3679 24.1109V9.77107C30.3676 9.41909 30.2619 9.07806 30.0682 8.79018L22.3429 15.6096Z"/>
</mask>
<path fill-rule="evenodd" clip-rule="evenodd" d="M5.39043 26.9577H28.6094C29.3642 26.9568 30.0877 26.6566 30.6213 26.1229C31.155 25.5892 31.4551 24.8656 31.4559 24.1109V9.77107C31.4551 9.01635 31.155 8.29277 30.6213 7.75908C30.0877 7.22539 29.3642 6.92518 28.6094 6.92432H5.39043C4.63571 6.92518 3.91216 7.22539 3.37852 7.75908C2.84488 8.29277 2.54474 9.01635 2.54395 9.77107V24.1109C2.54474 24.8656 2.84488 25.5892 3.37852 26.1229C3.91216 26.6566 4.63571 26.9568 5.39043 26.9577ZM4.80922 8.11169C4.99427 8.04673 5.19058 8.01253 5.39043 8.01232H28.6094C28.8097 8.01253 29.0065 8.04688 29.1919 8.11214L16.9998 18.8738L4.80922 8.11169ZM3.93233 8.78914L11.6786 15.6271L3.72878 24.6851C3.66544 24.5021 3.63213 24.3082 3.63195 24.1109V9.77107C3.63227 9.41866 3.73826 9.07724 3.93233 8.78914ZM16.6397 20.0064L12.4947 16.3475L4.40401 25.5661C4.69302 25.7621 5.03617 25.8693 5.39043 25.8697H28.6094C28.9732 25.8693 29.3252 25.7563 29.6189 25.5501L21.5268 16.33L17.3605 20.0078C17.2608 20.0953 17.1325 20.1432 16.9998 20.1424C16.8672 20.1425 16.7392 20.0941 16.6397 20.0064ZM22.3429 15.6096L30.2813 24.6546C30.338 24.4806 30.3677 24.2973 30.3679 24.1109V9.77107C30.3676 9.41909 30.2619 9.07806 30.0682 8.79018L22.3429 15.6096Z" fill="white"/>
<path d="M28.6094 26.9577V27.0577H28.6096L28.6094 26.9577ZM5.39043 26.9577L5.39031 27.0577H5.39043V26.9577ZM30.6213 26.1229L30.6921 26.1936H30.6921L30.6213 26.1229ZM31.4559 24.1109L31.5559 24.111V24.1109H31.4559ZM31.4559 9.77107H31.5559V9.77096L31.4559 9.77107ZM30.6213 7.75908L30.6921 7.68837L30.6213 7.75908ZM28.6094 6.92432L28.6096 6.82432H28.6094V6.92432ZM5.39043 6.92432V6.82432L5.39031 6.82432L5.39043 6.92432ZM3.37852 7.75908L3.3078 7.68837L3.37852 7.75908ZM2.54395 9.77107L2.44395 9.77096V9.77107H2.54395ZM2.54395 24.1109H2.44395L2.44395 24.111L2.54395 24.1109ZM3.37852 26.1229L3.3078 26.1936H3.3078L3.37852 26.1229ZM5.39043 8.01232V7.91232L5.39032 7.91232L5.39043 8.01232ZM4.80922 8.11169L4.77609 8.01734L4.61522 8.07382L4.74304 8.18666L4.80922 8.11169ZM28.6094 8.01232L28.6095 7.91232H28.6094V8.01232ZM29.1919 8.11214L29.2581 8.18712L29.3858 8.07437L29.2251 8.01782L29.1919 8.11214ZM16.9998 18.8738L16.9336 18.9488L16.9998 19.0072L17.066 18.9488L16.9998 18.8738ZM11.6786 15.6271L11.7538 15.6931L11.8196 15.6181L11.7448 15.5521L11.6786 15.6271ZM3.93233 8.78914L3.99851 8.71417L3.91307 8.63875L3.84939 8.73327L3.93233 8.78914ZM3.72878 24.6851L3.63428 24.7178L3.69053 24.8803L3.80394 24.7511L3.72878 24.6851ZM3.63195 24.1109H3.53195L3.53195 24.111L3.63195 24.1109ZM3.63195 9.77107L3.53195 9.77098V9.77107H3.63195ZM12.4947 16.3475L12.5609 16.2726L12.4857 16.2062L12.4196 16.2816L12.4947 16.3475ZM16.6397 20.0064L16.5735 20.0814L16.5736 20.0814L16.6397 20.0064ZM4.40401 25.5661L4.32885 25.5001L4.25414 25.5852L4.34787 25.6488L4.40401 25.5661ZM5.39043 25.8697L5.39032 25.9697H5.39043V25.8697ZM28.6094 25.8697V25.9697H28.6095L28.6094 25.8697ZM29.6189 25.5501L29.6764 25.632L29.7676 25.5679L29.6941 25.4842L29.6189 25.5501ZM21.5268 16.33L21.602 16.264L21.5358 16.1887L21.4606 16.255L21.5268 16.33ZM17.3605 20.0078L17.4264 20.083L17.4267 20.0828L17.3605 20.0078ZM16.9998 20.1424L17.0004 20.0424H16.9998L16.9998 20.1424ZM22.3429 15.6096L22.2768 15.5346L22.202 15.6006L22.2678 15.6756L22.3429 15.6096ZM30.2813 24.6546L30.2062 24.7205L30.322 24.8525L30.3764 24.6855L30.2813 24.6546ZM30.3679 24.1109L30.4679 24.111V24.1109H30.3679ZM30.3679 9.77107H30.4679V9.77098L30.3679 9.77107ZM30.0682 8.79018L30.1512 8.73437L30.0876 8.63974L30.0021 8.71521L30.0682 8.79018ZM28.6094 26.8577H5.39043V27.0577H28.6094V26.8577ZM30.5506 26.0522C30.0357 26.5672 29.3376 26.8568 28.6093 26.8577L28.6096 27.0577C29.3907 27.0568 30.1397 26.746 30.6921 26.1936L30.5506 26.0522ZM31.3559 24.1108C31.3552 24.839 31.0655 25.5372 30.5506 26.0522L30.6921 26.1936C31.2444 25.6412 31.5551 24.8922 31.5559 24.111L31.3559 24.1108ZM31.3559 9.77107V24.1109H31.5559V9.77107H31.3559ZM30.5506 7.82979C31.0655 8.34475 31.3552 9.04294 31.3559 9.77117L31.5559 9.77096C31.5551 8.98976 31.2444 8.24079 30.6921 7.68837L30.5506 7.82979ZM28.6093 7.02432C29.3376 7.02515 30.0357 7.31483 30.5506 7.82979L30.6921 7.68837C30.1397 7.13596 29.3907 6.82521 28.6096 6.82432L28.6093 7.02432ZM5.39043 7.02432H28.6094V6.82432H5.39043V7.02432ZM3.44923 7.82979C3.96415 7.31483 4.66231 7.02515 5.39054 7.02432L5.39031 6.82432C4.60911 6.82521 3.86017 7.13596 3.3078 7.68837L3.44923 7.82979ZM2.64395 9.77117C2.64471 9.04294 2.93432 8.34475 3.44923 7.82979L3.3078 7.68837C2.75544 8.24079 2.44477 8.98976 2.44395 9.77096L2.64395 9.77117ZM2.64395 24.1109V9.77107H2.44395V24.1109H2.64395ZM3.44923 26.0522C2.93432 25.5372 2.64471 24.839 2.64395 24.1108L2.44395 24.111C2.44477 24.8922 2.75544 25.6412 3.3078 26.1936L3.44923 26.0522ZM5.39054 26.8577C4.66231 26.8568 3.96415 26.5672 3.44923 26.0522L3.3078 26.1936C3.86017 26.746 4.60911 27.0568 5.39031 27.0577L5.39054 26.8577ZM5.39032 7.91232C5.17912 7.91254 4.97165 7.94868 4.77609 8.01734L4.84234 8.20605C5.01688 8.14477 5.20204 8.11252 5.39053 8.11232L5.39032 7.91232ZM28.6094 7.91232H5.39043V8.11232H28.6094V7.91232ZM29.2251 8.01782C29.0292 7.94885 28.8212 7.91255 28.6095 7.91232L28.6093 8.11232C28.7983 8.11252 28.9838 8.14492 29.1587 8.20647L29.2251 8.01782ZM17.066 18.9488L29.2581 8.18712L29.1257 8.03717L16.9337 18.7988L17.066 18.9488ZM4.74304 8.18666L16.9336 18.9488L17.066 18.7989L4.8754 8.03673L4.74304 8.18666ZM11.7448 15.5521L3.99851 8.71417L3.86615 8.86411L11.6124 15.7021L11.7448 15.5521ZM3.80394 24.7511L11.7538 15.6931L11.6035 15.5611L3.65362 24.6191L3.80394 24.7511ZM3.53195 24.111C3.53214 24.3195 3.56734 24.5244 3.63428 24.7178L3.82328 24.6524C3.76353 24.4798 3.73212 24.2969 3.73195 24.1108L3.53195 24.111ZM3.53195 9.77107V24.1109H3.73195V9.77107H3.53195ZM3.84939 8.73327C3.6443 9.03773 3.53229 9.39855 3.53195 9.77098L3.73195 9.77116C3.73225 9.43878 3.83221 9.11675 4.01527 8.84501L3.84939 8.73327ZM12.4286 16.4225L16.5735 20.0814L16.7059 19.9315L12.5609 16.2726L12.4286 16.4225ZM4.47917 25.632L12.5699 16.4135L12.4196 16.2816L4.32885 25.5001L4.47917 25.632ZM5.39053 25.7697C5.05641 25.7693 4.73275 25.6682 4.46015 25.4833L4.34787 25.6488C4.6533 25.856 5.01593 25.9693 5.39032 25.9697L5.39053 25.7697ZM28.6094 25.7697H5.39043V25.9697H28.6094V25.7697ZM29.5615 25.4683C29.2844 25.6628 28.9524 25.7693 28.6093 25.7697L28.6095 25.9697C28.9939 25.9692 29.366 25.8499 29.6764 25.632L29.5615 25.4683ZM29.6941 25.4842L21.602 16.264L21.4517 16.396L29.5438 25.6161L29.6941 25.4842ZM17.4267 20.0828L21.593 16.405L21.4606 16.255L17.2943 19.9328L17.4267 20.0828ZM16.9993 20.2424C17.1564 20.2433 17.3083 20.1866 17.4264 20.083L17.2946 19.9326C17.2132 20.004 17.1086 20.043 17.0004 20.0424L16.9993 20.2424ZM16.5736 20.0814C16.6913 20.1853 16.8429 20.2425 16.9999 20.2424L16.9998 20.0424C16.8915 20.0425 16.787 20.003 16.7058 19.9314L16.5736 20.0814ZM22.2678 15.6756L30.2062 24.7205L30.3565 24.5886L22.4181 15.5436L22.2678 15.6756ZM30.2679 24.1108C30.2678 24.2866 30.2397 24.4595 30.1863 24.6236L30.3764 24.6855C30.4363 24.5017 30.4677 24.308 30.4679 24.111L30.2679 24.1108ZM30.2679 9.77107V24.1109H30.4679V9.77107H30.2679ZM29.9853 8.84599C30.1679 9.11752 30.2676 9.43918 30.2679 9.77116L30.4679 9.77098C30.4676 9.399 30.3558 9.0386 30.1512 8.73437L29.9853 8.84599ZM22.4091 15.6846L30.1344 8.86515L30.0021 8.71521L22.2768 15.5346L22.4091 15.6846Z" fill="#030E40" mask="url(#path-1-inside-1_101_385)"/>
</svg>
