<svg width="76" height="76" viewBox="0 0 76 76" fill="none" xmlns="http://www.w3.org/2000/svg">
<g clip-path="url(#clip0_1_1233)">
<path d="M72.7659 68.7365V51.437C72.7659 45.6518 68.3691 40.8934 62.7349 40.3213C62.3593 40.2832 61.9781 40.376 61.5925 40.376C55.4216 40.376 50.6729 45.3432 50.6729 51.5142L50.6732 68.6637L72.7659 68.7365Z" fill="#855B51"/>
<path d="M62.8002 40.3286C57.1971 40.9307 52.8344 45.6736 52.8344 51.4367V68.6082L50.4199 68.6641V51.4367C50.4199 45.2662 55.4224 40.2637 61.5929 40.2637C62.0004 40.2637 62.4033 40.2848 62.8002 40.3286Z" fill="#724D44"/>
<path d="M64.7103 75.0306V63.3234L64.2475 61.9555L64.7103 57.937H58.4736L58.7377 64.2937L58.4736 66.4064V75.0306L61.5909 75.4999L64.7103 75.0306Z" fill="#C48958"/>
<path d="M58.353 64.5884L52.2236 67.0148L52.9681 75.5001H61.5914L61.1414 75.005C58.9933 72.6412 58.5747 69.588 58.4935 66.4066C58.4757 65.7066 58.353 65.2949 58.353 64.5884Z" fill="#FFD163"/>
<path d="M58.4947 66.4066L58.475 66.4141L52.3905 68.9146L52.2109 66.8684L58.475 64.2939L58.7384 65.3462L58.4947 66.4066Z" fill="#FFB65F"/>
<path d="M71.1109 66.9311L64.7102 64.2937C64.7102 68.1587 64.6684 72.1337 62.0198 75.0309L61.5908 75.5002H71.9381C72.7725 75.5002 73.4487 74.8238 73.4487 73.9896V70.4228C73.4487 68.8927 72.5256 67.5139 71.1109 66.9311Z" fill="#FFD163"/>
<path d="M58.4748 57.9377H58.4736C58.4736 57.9377 58.4744 63.3149 58.4748 63.315C58.4748 63.315 58.4763 65.7063 58.4945 66.4065L60.0625 65.762C60.2889 65.6688 60.4366 65.4484 60.4366 65.2036V64.5334C60.4366 64.3466 60.6047 64.2061 60.789 64.2372C61.0576 64.2826 61.325 64.3057 61.5898 64.3057C62.6613 64.3057 63.7191 63.9435 64.709 63.3233V57.9375H58.4748V57.9377Z" fill="#B27A49"/>
<path d="M54.8977 52.7856C54.9111 53.3292 54.7023 53.7493 54.8165 54.3044C55.642 58.3144 58.8928 62.3442 61.591 62.3442C64.7103 62.3442 68.5633 56.9653 68.5633 52.4521C68.5633 49.6589 67.6212 47.1929 65.8331 45.7192C65.4609 45.4125 65.1548 45.4409 64.7103 45.2262C64.5703 45.1584 64.4055 45.2372 64.3678 45.3881C63.5339 48.7196 60.7076 51.4525 57.2609 52.1692L55.0886 52.5456C54.976 52.5695 54.8977 52.7856 54.8977 52.7856Z" fill="#C48958"/>
<path d="M57.715 53.6618C61.6957 52.8034 64.9099 49.5743 65.8322 45.7202C65.4601 45.4136 65.0524 45.1487 64.6079 44.934C64.4679 44.8664 64.3031 44.945 64.2654 45.0959C63.4315 48.4275 60.6557 51.1812 57.2092 51.8977L54.812 52.4106C54.6996 52.4346 54.6198 52.5348 54.6211 52.6496V52.6507C54.6345 53.1943 54.7032 53.749 54.8174 54.304L57.715 53.6618Z" fill="#B27A49"/>
<path d="M26.2648 67.8942L17.5263 64.7809C15.8813 66.6797 13.0309 66.4619 11.3866 64.5625L5.07876 67.1839C3.66417 67.7668 2.70215 68.8925 2.70215 70.4226V73.8384C2.70215 74.6728 3.37851 75.349 4.21271 75.349L4.51301 75.4999H11.2887L14.3083 75.113L17.5256 75.4999H23.1L26.2648 74.9396V67.8942Z" fill="#BAE6EF"/>
<path d="M17.3069 59.4478H11.5918L11.6175 63.9847C12.1604 64.6114 12.5182 65.3428 13.2512 65.5558C14.7377 65.9877 16.4224 65.5681 17.5242 64.2974L17.5261 64.2951V61.899L17.3069 59.4478Z" fill="#F2D1A5"/>
<path d="M12.6704 65.5772L6.09887 68.5514L5.63544 68.7454C4.95335 69.0261 4.5127 69.684 4.5127 70.422V75.4999H4.06134C3.22684 75.4999 2.55078 74.8238 2.55078 73.9893V70.422C2.55078 68.8933 3.47432 67.514 4.88831 66.9315L11.0007 64.5625C11.4267 64.9882 12.6704 65.5772 12.6704 65.5772Z" fill="#94D8E6"/>
<path d="M24.6507 67.229L17.525 75.5001H11.288L6.09901 68.5513L5.09277 67.0158L8.50897 65.8279L11.2896 64.2939C12.9329 66.1938 15.8801 66.1938 17.525 64.2955V64.2939L24.6507 67.229Z" fill="#F8F7F7"/>
<path d="M13.2518 59.4482H11.29V61.9005V64.2969V64.6027L12.8489 65.5725C12.8489 65.5725 13.201 65.5316 13.2518 65.5524V63.0303C13.2518 62.8451 13.417 62.7049 13.5999 62.7333C13.8689 62.7751 14.1379 62.7968 14.4062 62.7968C15.452 62.7968 16.5129 62.4709 17.5254 61.899V59.4482H13.2518Z" fill="#F2BB88"/>
<path d="M13.2513 65.554V65.5555L6.0984 68.551L4.88965 66.9318L11.2895 64.2939C11.3935 64.3456 11.8079 65.0965 13.2513 65.554Z" fill="#E8E8E8"/>
<path d="M21.5888 50.9871C21.5888 46.2405 19.1532 43.3459 14.4068 43.3459C9.66037 43.3459 7.22461 46.2405 7.22461 50.9871C7.22461 51.9894 7.25449 53.0077 7.57063 53.9902C8.75147 57.6607 11.8206 60.835 14.4066 60.835C16.971 60.835 20.0067 57.7182 21.2102 54.0904C21.5466 53.077 21.5888 52.0235 21.5888 50.9871Z" fill="#F2D1A5"/>
<path d="M18.4586 44.2973C17.9535 44.3539 17.4816 44.48 17.0842 44.6519L17.0784 44.6672C17.0423 44.2935 16.9459 43.9436 16.7867 43.6301C16.0666 43.4435 15.2728 43.3458 14.4062 43.3458C9.65961 43.3458 7.07324 46.2403 7.07324 50.9869C7.07324 51.9892 7.25569 53.0069 7.57183 53.9896C7.67701 53.8941 7.7908 53.7871 7.91484 53.6605C8.85483 52.7011 10.4354 51.1095 12.2997 50.2956C13.4398 49.7979 14.4047 49.6606 15.1506 49.0116C15.2962 48.8848 15.5171 48.9189 15.6143 49.0857C15.9545 49.6694 16.7108 50.472 18.2377 51.3791C19.5394 52.1525 20.6457 53.2478 21.2098 54.0903C21.546 53.0768 21.7393 52.0235 21.7393 50.9871C21.7391 47.8434 20.6036 45.5134 18.4586 44.2973Z" fill="#F2BB88"/>
<path d="M17.0961 42.8546C17.6323 42.6221 18.2944 42.3091 19.002 42.3029C20.0907 42.2934 21.2597 42.6221 22.132 43.5053C24.9871 46.3962 23.488 50.8542 22.3914 52.8109C22.2892 52.9931 22.0396 53.0215 21.9014 52.865C21.3527 52.2441 20.0022 50.824 18.1897 49.6637C17.6 49.2861 17.0914 48.8426 16.676 48.3628C16.1925 47.8046 16.041 47.0768 15.8291 46.4684L17.0961 42.8546Z" fill="#8E868E"/>
<path d="M18.6995 45.1348C18.2935 46.3345 17.5948 47.4346 16.6788 48.3612C16.1929 47.8043 15.8353 47.1977 15.624 46.5896L17.0848 42.6902C17.622 42.4578 18.295 42.3084 19.0028 42.3024C19.1265 43.1957 19.0269 44.166 18.6995 45.1348Z" fill="#766D78"/>
<path d="M16.6669 41.4554C16.1677 40.6757 15.2755 40.1839 14.1805 40.0095C12.4276 39.7303 10.2381 40.54 8.22673 42.0102C4.43478 44.7815 5.21043 50.2111 6.39987 52.6217C6.50143 52.8276 6.78272 52.853 6.91732 52.6669C7.12467 52.3807 7.45349 52.1698 7.91511 51.6986C8.8551 50.7391 10.3412 49.5542 12.4509 48.7864C16.2544 47.4021 17.965 43.4833 16.6669 41.4554Z" fill="#8E868E"/>
<path d="M14.1974 40.0131C12.8695 40.2032 11.4298 40.7661 10.1049 41.7349C6.81515 44.1388 7.02491 48.9044 7.91525 51.6992C7.45348 52.17 7.123 52.5865 6.91626 52.8732C6.78195 53.0588 6.49976 53.0332 6.39865 52.8279C5.20952 50.4165 4.35087 44.507 8.14312 41.7349C10.1622 40.259 12.4424 39.7264 14.1974 40.0131Z" fill="#766D78"/>
<path d="M22.0072 29.7451L18.5009 29.7257C18.0763 29.7257 17.6685 29.8926 17.3657 30.1905L15.004 32.5115C14.6874 32.823 14.179 32.8212 13.8647 32.5075L11.5508 30.1986C11.2474 29.8957 10.8361 29.7257 10.4074 29.7257H6.76607C5.15697 29.7257 3.85254 28.4212 3.85254 26.8121V16.6117C3.85254 15.3358 4.5218 14.1005 5.66371 13.7061C5.9619 13.6032 6.28212 13.5472 6.61532 13.5472H25.1633V26.9632C25.1633 27.2967 25.1073 27.6172 25.0041 27.9156C24.6093 29.0569 23.2828 29.7451 22.0072 29.7451Z" fill="#F8F7F7"/>
<path d="M25.0024 27.915C24.6086 29.0559 23.5251 29.8768 22.2499 29.8768H18.6523C18.2268 29.8768 17.8193 30.0443 17.516 30.3416L15.0034 32.8134C14.6881 33.1243 14.1795 33.1228 13.8641 32.8089L11.3998 30.3491C11.0965 30.0473 10.6845 29.8768 10.256 29.8768H6.61462C5.00597 29.8768 3.70215 28.5715 3.70215 26.9628V16.4613C3.70215 15.1846 4.52156 14.0996 5.66392 13.7073V26.9628C5.66392 27.488 6.08947 27.915 6.61462 27.915H10.256C11.2112 27.915 12.1091 28.2863 12.7851 28.9608L14.018 30.1922C14.2535 30.4261 14.6322 30.4276 14.8691 30.1952L16.1413 28.9427C16.8098 28.2847 17.7122 27.915 18.6523 27.915H25.0024Z" fill="#E8E8E8"/>
<path d="M14.1938 19.4923C14.3283 19.6191 14.5392 19.6153 14.6744 19.4893C15.156 19.0404 15.808 18.7653 16.5211 18.7674C17.9836 18.7718 19.1772 19.9727 19.1563 21.4161C19.129 23.322 17.0953 24.9529 15.7054 25.8465C15.2144 26.1622 14.8048 26.1885 14.5913 26.2998C14.4917 26.3517 14.3732 26.353 14.2726 26.3033C13.4405 25.8927 9.86011 24.069 9.91368 21.4101C9.93526 20.3382 10.4597 19.4409 11.3843 19.034C11.4801 18.9919 11.5762 18.8949 11.6806 18.8652C11.8978 18.8032 12.1253 18.7691 12.3594 18.7674C13.0726 18.7624 13.7168 19.0427 14.1938 19.4923Z" fill="#DF646E"/>
<path d="M15.7056 25.8461C15.2151 26.1615 14.8032 26.3848 14.5904 26.4965C14.4908 26.5493 14.3731 26.5508 14.272 26.501C13.439 26.0906 9.65426 24.0745 9.70859 21.4155C9.73273 20.2324 10.5687 19.1836 11.6809 18.8652C11.3082 19.3225 11.0803 19.8989 11.0667 20.5101C11.023 22.6635 14.0939 24.8667 15.7056 25.8461Z" fill="#DC4955"/>
<path d="M69.2022 29.7257H65.6044C65.1798 29.7257 64.772 29.8926 64.4692 30.1905L62.1075 32.6625C61.7909 32.9739 61.2825 32.9721 60.9682 32.6584L58.6543 30.1986C58.3509 29.8958 57.9397 29.7257 57.5109 29.7257H53.8696C52.2605 29.7257 50.9561 28.4213 50.9561 26.8122L51.1485 13.8455L54.0869 13.5471H69.3531C70.9622 13.5471 72.2666 14.8515 72.2666 16.4606V26.9629C72.2666 27.2964 72.2106 27.6168 72.1074 27.9153C71.7129 29.0569 70.4778 29.7257 69.2022 29.7257Z" fill="#F8F7F7"/>
<path d="M61.2974 19.4923C61.4318 19.6191 61.6428 19.6153 61.778 19.4893C62.2595 19.0404 62.9116 18.7653 63.6246 18.7674C65.0872 18.7718 66.2807 19.9727 66.2599 21.4161C66.2326 23.322 64.1988 24.9529 62.809 25.8465C62.3179 26.1622 61.9084 26.1885 61.6948 26.2998C61.5952 26.3517 61.4768 26.353 61.3761 26.3033C60.544 25.8927 56.9636 24.069 57.0172 21.4101C57.0388 20.3382 57.5632 19.4409 58.4878 19.034C58.5836 18.9919 58.6797 18.8949 58.7842 18.8652C59.0013 18.8032 59.2289 18.7691 59.4629 18.7674C60.1761 18.7624 60.8203 19.0427 61.2974 19.4923Z" fill="#DF646E"/>
<path d="M62.8091 25.8461C62.3187 26.1615 61.9067 26.3848 61.6939 26.4965C61.5943 26.5493 61.4766 26.5508 61.3755 26.501C60.5425 26.0906 56.7578 24.0745 56.8121 21.4155C56.8362 20.2324 57.6723 19.1836 58.7844 18.8652C58.4117 19.3225 58.1838 19.8989 58.1703 20.5101C58.1265 22.6635 61.1974 24.8667 62.8091 25.8461Z" fill="#DC4955"/>
<path d="M65.7549 27.915C64.8102 27.915 63.9184 28.2802 63.2438 28.9426L61.7589 30.4049C61.6412 30.5211 61.4511 30.5196 61.3334 30.4034L59.8892 28.9608C59.2177 28.2907 58.3092 27.915 57.36 27.915H53.7187C53.1928 27.915 52.7665 27.4887 52.7665 26.9628V21.6799C52.7665 21.608 52.7932 21.5392 52.8396 21.4844C52.9841 21.3142 53.1143 21.1348 53.2282 20.946C53.7896 20.0119 54.0869 18.9405 54.0869 17.8479V13.5471H50.8047V26.9626C50.8047 28.572 52.1093 29.8766 53.7187 29.8766H57.36C57.7886 29.8766 58.2006 30.0471 58.5039 30.3489L60.9682 32.8087C61.2821 33.1226 61.7906 33.1241 62.1075 32.8132L64.6201 30.3414C64.9234 30.0441 65.3309 29.8766 65.7549 29.8766H69.3525C70.6291 29.8766 71.7126 29.0557 72.1065 27.9148H65.7549V27.915Z" fill="#E8E8E8"/>
<path d="M47.6161 21.5385L43.2545 21.6862C42.5637 21.6862 41.9056 21.9805 41.445 22.4952L38.9122 25.2826C38.4593 25.7887 37.666 25.7856 37.2172 25.2758L34.8746 22.4392C34.4136 21.9156 33.7497 21.6156 33.0521 21.6156L28.0522 21.8954C25.8173 21.8954 24.0049 20.083 24.0049 17.8481V4.54728C24.0049 3.0752 24.7912 1.78602 25.9667 1.07797C26.5757 0.710966 27.2892 0.5 28.052 0.5H48.0777C50.3126 0.5 52.1244 2.31177 52.1244 4.54668V17.8482C52.1244 18.6109 51.9135 19.3244 51.5466 19.9334C50.8384 21.1088 49.0884 21.5385 47.6161 21.5385Z" fill="#F8F7F7"/>
<path d="M51.5466 19.9336C50.8374 21.1092 49.5487 21.8954 48.0773 21.8954H43.2529C42.5617 21.8954 41.9038 22.1897 41.442 22.7043L38.9159 25.5277C38.4631 26.0347 37.6694 26.0317 37.2212 25.5217L34.7539 22.7194C34.2936 22.1957 33.6296 21.8954 32.9309 21.8954H28.0522C25.8173 21.8954 24.0049 20.083 24.0049 17.8481V4.54732C24.0049 3.07599 24.7911 1.78726 25.9667 1.078V17.8481C25.9667 18.9995 26.9008 19.9336 28.0522 19.9336H32.9309C34.1925 19.9336 35.3937 20.4754 36.2267 21.4231L37.7403 23.1419C37.9184 23.3456 38.2353 23.3456 38.4164 23.1434L39.9812 21.3959C40.8127 20.4648 42.0034 19.9336 43.2529 19.9336H51.5466Z" fill="#E8E8E8"/>
<path d="M37.6995 7.1139C37.9058 7.30827 38.2295 7.30253 38.4368 7.10937C39.1756 6.42064 40.176 5.99856 41.2699 6.00173C43.5137 6.00837 45.3448 7.85077 45.313 10.0653C45.2689 13.1305 41.8426 15.732 39.7171 17.0528C39.0987 17.4372 38.6364 17.5425 38.3537 17.69C38.2009 17.7696 38.0192 17.7716 37.8646 17.6952C36.5879 17.0654 31.0144 14.3768 31.0966 10.2977C31.1319 8.5466 32.0488 6.75248 33.6652 6.20726C34.0512 6.07703 34.461 6.00474 34.8849 6.00188C35.9793 5.99388 36.9676 6.42411 37.6995 7.1139Z" fill="#DF646E"/>
<path d="M39.7176 17.0528C39.0989 17.4376 38.5904 17.7138 38.3082 17.8601C38.1558 17.9401 37.9732 17.9416 37.8192 17.8662C36.5426 17.2354 30.7358 14.1449 30.8173 10.0659C30.852 8.31387 32.0486 6.752 33.6663 6.20874C32.9495 6.94667 32.4983 7.94264 32.4772 9.00954C32.4078 12.497 37.4541 15.7792 39.7176 17.0528Z" fill="#DC4955"/>
<path d="M41.9616 53.3789H34.1064L34.4778 58.6162L34.1064 61.3852L34.1077 61.3867C34.462 61.7957 34.7096 62.2793 35.1519 62.5719C36.8331 63.6842 39.1755 63.7819 40.835 62.7838C41.2913 62.5093 41.5887 61.8151 41.9592 61.3879L41.9616 61.3852V58.0583L41.6441 57.5374L41.9616 53.3789Z" fill="#E3A76F"/>
<path d="M50.163 64.7643L46.0542 63.0713L41.9616 61.8269C39.8895 64.2186 36.1782 64.4344 34.107 62.0421L26.2077 64.7643C24.5101 65.4637 23.4023 67.1184 23.4023 68.9543L23.5532 75.198L25.0617 75.4998H34.9762L38.1854 74.7726L41.029 75.5H52.9684V68.9545C52.9684 67.1184 51.8606 65.4639 50.163 64.7643Z" fill="#CCF49F"/>
<path d="M36.0682 53.3788H34.1064V58.0584V61.3858C34.3527 61.6703 34.242 62.1495 34.529 62.3664C34.8558 62.6133 35.5858 62.5879 35.9505 62.747H35.952L35.9507 59.0225C35.9507 58.828 36.1316 58.6843 36.321 58.7285C36.8666 58.8557 37.479 58.9896 38.033 58.9896C39.4696 58.9896 40.784 58.6546 41.9611 58.0585V53.3789H36.0682V53.3788Z" fill="#D6995C"/>
<path d="M35.7782 62.7471L31.2352 64.6905L26.6534 66.5786C25.6861 66.977 25.0614 67.9096 25.0614 68.9538V75.5001H23.0996V68.9538C23.0996 67.1188 24.2073 65.4634 25.9049 64.7647L29.993 63.0806L31.8579 62.5046L34.0252 61.5317C34.5517 62.1399 35.0931 62.4483 35.7782 62.7471Z" fill="#B3E59F"/>
<path d="M46.0534 63.0713C45.9553 63.186 45.8889 63.2615 45.8828 63.269C43.0262 66.6719 41.3255 70.8973 41.0282 75.3324V75.4999H34.9754V75.3912C34.7355 71.5351 33.4345 67.8347 31.2347 64.6904C30.8614 64.1567 30.6317 63.6892 30.2074 63.1894L30.1621 63.1305L34.106 61.5412C34.633 62.1499 35.2662 62.4483 35.9516 62.7472C37.9592 63.6228 40.4146 63.1693 41.9593 61.3873L41.9608 61.3857L46.0534 63.0713Z" fill="#F8F7F7"/>
<path d="M35.9509 62.7469L31.2351 64.6906C30.8624 64.1564 30.4625 63.6388 30.0384 63.1393L29.9932 63.0804L34.1069 61.3857C34.469 61.8038 34.881 62.1493 35.3262 62.421C35.3669 62.4466 35.4077 62.4708 35.4484 62.4934C35.6129 62.5885 35.7804 62.6715 35.9509 62.7469Z" fill="#E8E8E8"/>
<path d="M46.5758 44.5147C46.5758 38.8303 43.7169 34.2754 38.0326 34.2754C32.3483 34.2754 29.771 38.8697 29.771 44.5542C29.771 45.5031 29.3371 46.4959 29.5074 47.4689C30.357 52.3252 33.297 57.0272 38.0326 57.0272C43.075 57.0272 46.0818 51.6961 46.6967 46.5241C46.7749 45.8657 46.5758 45.1566 46.5758 44.5147Z" fill="#E3A76F"/>
<path d="M46.8146 44.5679C46.8146 40.4113 45.1564 36.8328 42.0437 35.2081C41.9451 35.3315 41.7426 35.2538 41.7766 35.0732C40.6928 34.5601 39.4427 34.2755 38.0328 34.2755C32.3485 34.2755 29.251 38.8836 29.251 44.5679C29.251 45.5168 29.3377 46.4958 29.508 47.4689C29.64 47.2937 29.8209 47.1655 29.9933 47.0035C31.4803 45.6043 33.6138 45.5542 33.8411 44.091C33.8694 43.9083 34.0424 43.7889 34.2206 43.8384C35.9121 44.3078 38.6584 43.2363 39.577 41.3764C39.6656 41.1969 39.898 41.1551 40.0484 41.287C40.9072 42.0402 42.0382 42.0207 42.5293 41.9688C42.6699 41.954 42.8024 42.0375 42.8482 42.1712C43.7021 44.6675 46.0434 43.7516 46.6962 46.5242C46.7747 45.8656 46.8146 45.2098 46.8146 44.5679Z" fill="#D6995C"/>
<path d="M47.5922 36.8376C47.5132 36.8148 47.3653 36.7868 47.2426 36.7653C47.146 36.7484 47.0893 36.6446 47.1311 36.5559C47.362 36.0657 47.4714 35.5071 47.4188 34.9184C47.2839 33.4065 46.0593 32.1835 44.5471 32.0516C43.5644 31.9659 42.665 32.3295 42.0306 32.9593C41.9443 33.0451 41.7996 33.0024 41.7762 32.883C41.4311 31.1123 39.8722 29.7757 38.0004 29.7757C37.0848 29.7757 36.2446 30.0961 35.5839 30.6301C35.5183 30.6831 35.4249 30.6736 35.3707 30.609C34.7897 29.9162 33.9201 29.4739 32.9451 29.4739C31.3391 29.4739 30.0133 30.6687 29.8055 32.2178C29.7957 32.2907 29.7371 32.3458 29.6636 32.35C29.3093 32.3704 28.9657 32.4315 28.6378 32.5287C26.7655 33.0835 25.6035 34.8979 25.6035 36.9502C25.6035 38.115 26.0366 38.999 26.7594 39.8014C26.786 39.8308 26.7997 39.8683 26.7973 39.9078C26.7779 40.2149 26.6917 41.6527 26.9393 42.9736C27.392 45.3881 29.2513 46.0527 29.2513 46.0527C29.2513 45.341 29.5963 45.0685 29.9938 44.7399C30.9166 43.9771 32.51 43.8395 32.9119 42.4329C32.9328 42.3596 33.0029 42.3117 33.0779 42.3248C33.3208 42.3674 33.8408 42.4518 34.1523 42.4518C36.4661 42.4518 38.441 41.0046 39.2239 38.9664C39.2642 38.8616 39.4037 38.843 39.4734 38.9313C40.1505 39.7887 41.1993 40.3392 42.3766 40.3392C42.7237 40.3392 43.0593 40.2908 43.3778 40.2013C43.4556 40.1794 43.5364 40.2235 43.56 40.3007C44.4863 43.3263 46.8035 42.35 46.8035 45.1739C48.3211 44.4885 49.2284 42.1457 49.661 40.5888C50.1149 38.9545 49.1632 37.2915 47.5922 36.8376Z" fill="#855B51"/>
<path d="M29.993 44.7394C29.5961 45.0684 29.3373 45.5265 29.3373 46.2388C29.3373 46.2388 27.2103 45.4698 26.7576 43.0553C26.5101 41.7349 26.581 40.3103 26.6006 40.0025C26.6036 39.9632 26.5885 39.9255 26.5629 39.8969C25.8401 39.094 25.3994 38.0332 25.3994 36.8682C25.3994 34.8159 26.7651 33.0835 28.6378 32.5297C27.6705 33.3596 27.0594 34.5895 27.0594 35.9628C27.0594 37.1277 27.5 38.1886 28.2229 38.9914C28.2485 39.0201 28.2636 39.0578 28.2606 39.0971C28.241 39.4049 28.17 40.8294 28.4175 42.1499C28.6605 43.4431 29.3788 44.2595 29.993 44.7394Z" fill="#724D44"/>
</g>
<defs>
<clipPath id="clip0_1_1233">
<rect width="75" height="75" fill="white" transform="translate(0.5 0.5)"/>
</clipPath>
</defs>
</svg>
