<svg width="76" height="76" viewBox="0 0 76 76" fill="none" xmlns="http://www.w3.org/2000/svg">
<g clip-path="url(#clip0_1_1216)">
<path d="M8.94981 47.3223L18.2719 38L8.94981 28.6777L5.84243 31.7851L9.85991 35.8027H0.5V40.1973H9.85991L5.84243 44.2149L8.94981 47.3223Z" fill="#FF4890"/>
<path d="M15.8811 12.7735L9.26265 6.15503L6.15527 9.2624L12.7737 15.8809H7.09204V20.2754H20.2756V7.0918H15.8811V12.7735Z" fill="#FF4890"/>
<path d="M75.5004 35.8027H66.1405L70.158 31.7851L67.0506 28.6777L57.7285 38L67.0506 47.3223L70.158 44.2149L66.1405 40.1973H75.5004V35.8027Z" fill="#D92A6F"/>
<path d="M68.9082 15.8809H63.2265L69.845 9.2624L66.7376 6.15503L60.1191 12.7735V7.0918H55.7246V20.2754H68.9082V15.8809Z" fill="#D92A6F"/>
<path d="M68.9082 60.1191V55.7246H55.7246V68.9082H60.1191V63.2265L66.7376 69.8449L69.845 66.7376L63.2265 60.1191H68.9082Z" fill="#D92A6F"/>
<path d="M7.09204 60.1191H12.7737L6.15527 66.7376L9.26265 69.8449L15.8811 63.2265V68.9082H20.2756V55.7246H7.09204V60.1191Z" fill="#FF4890"/>
<path d="M36.5352 38.8632L38 69.6589H47.336V40.328L36.5352 38.8632Z" fill="#1C2965"/>
<path d="M28.6016 40.328V69.6589H38V38.8632L28.6016 40.328Z" fill="#263A96"/>
<path d="M52.0042 27.3352C52.0042 23.468 48.8693 20.3331 45.0021 20.3331H36.5352L38 40.3279H52.0042V27.3352Z" fill="#068DCD"/>
<path d="M30.9982 20.3331C27.131 20.3331 23.9961 23.468 23.9961 27.3352V40.3279H38.0003V20.3331H30.9982Z" fill="#2EA9E4"/>
<path d="M46.1007 14.4418C46.1007 9.97505 42.4667 6.34106 38 6.34106L36.5352 14.4418L38 22.5425C42.4667 22.5425 46.1007 18.9085 46.1007 14.4418Z" fill="#A95B46"/>
<path d="M29.8994 14.4418C29.8994 18.9085 33.5334 22.5425 38.0001 22.5425V6.34106C33.5334 6.34106 29.8994 9.97505 29.8994 14.4418Z" fill="#D38452"/>
</g>
<defs>
<clipPath id="clip0_1_1216">
<rect width="75" height="75" fill="white" transform="translate(0.5 0.5)"/>
</clipPath>
</defs>
</svg>
