<svg width="75" height="75" viewBox="0 0 75 75" fill="none" xmlns="http://www.w3.org/2000/svg">
<g clip-path="url(#clip0_1_1308)">
<path d="M22.3952 71.1748L24.4723 71.7741C41.4112 76.661 59.6705 72.8852 73.2817 61.6806C74.7706 60.4551 74.8373 58.198 73.4235 56.8865L73.3592 56.8269C71.9174 55.4895 69.7826 55.2739 68.1177 56.2866L61.2889 60.4406C54.3757 64.646 45.9503 65.5588 38.2969 62.9316C35.1381 61.8473 34.5408 57.6384 37.2735 55.7181L44.3755 50.7273C45.7148 49.7861 46.0593 47.9486 45.1516 46.5863C44.4622 45.5517 43.2089 45.046 41.9946 45.3124L22.3953 49.6122L19.1622 53.1035V67.9202L22.3952 71.1748Z" fill="#FFDDCE"/>
<path d="M44.2055 46.3042L37.1035 51.295C35.135 52.6783 34.8948 55.2489 36.0951 56.984C36.3777 56.5065 36.7684 56.0729 37.2736 55.7177L44.3757 50.7269C45.715 49.7857 46.0594 47.9482 45.1517 46.5859C44.9955 46.3513 44.8089 46.1455 44.6016 45.9681C44.4805 46.089 44.35 46.2028 44.2055 46.3042V46.3042Z" fill="#FFCBBE"/>
<path d="M73.4572 56.9211C73.3512 57.0392 73.2385 57.1533 73.1117 57.2577C59.5003 68.4623 41.2412 72.2381 24.3022 67.3512L22.2251 66.7519L19.1622 63.6682V67.9198L22.3953 71.1747L24.4724 71.774C41.4113 76.661 59.6706 72.8851 73.2819 61.6805C74.7581 60.4653 74.8341 58.2372 73.4572 56.9211V56.9211Z" fill="#FFCBBE"/>
<path d="M1.72188 75H20.6189C21.5999 75 22.3952 74.2048 22.3952 73.2237V47.9953C22.3952 47.0142 21.5999 46.219 20.6189 46.219H1.72188C1.07896 46.219 0.557739 46.7402 0.557739 47.3831V73.8357C0.557739 74.4786 1.07896 75 1.72188 75Z" fill="#2EA9E4"/>
<path d="M22.3952 73.2235V47.9953C22.3952 47.0142 21.5999 46.219 20.6188 46.219H18.6321V68.9401C18.6321 69.9212 17.8369 70.7164 16.8558 70.7164H0.557739V73.8357C0.557739 74.4786 1.07896 74.9998 1.72188 74.9998H20.6188C21.5998 74.9998 22.3952 74.2046 22.3952 73.2235V73.2235Z" fill="#2EA9E4"/>
<path d="M50.8483 40.7139L67.9994 24.224C68.808 23.4466 68.909 22.1879 68.2346 21.2916L62.402 13.5383C61.983 12.9813 61.3265 12.6536 60.6295 12.6536H37.9925C37.2953 12.6536 36.6389 12.9812 36.2199 13.5383L30.3874 21.2916C29.7131 22.1879 29.814 23.4466 30.6226 24.224L47.7737 40.7137C48.6323 41.5394 49.9896 41.5394 50.8483 40.7139V40.7139Z" fill="#2EA9E4"/>
<path d="M68.2345 21.2916L62.4019 13.5383C61.9829 12.9813 61.3263 12.6536 60.6294 12.6536H54.4386C55.1355 12.6536 55.7921 12.9812 56.2111 13.5383L62.0437 21.2916C62.7179 22.1879 62.617 23.4466 61.8085 24.224L46.2155 39.2158L47.7736 40.7139C48.6322 41.5394 49.9895 41.5394 50.8482 40.7139L67.9993 24.224C68.8078 23.4466 68.9087 22.188 68.2345 21.2916V21.2916Z" fill="#2EA9E4"/>
<path d="M49.3107 6.60585C48.6949 6.60585 48.1958 6.10675 48.1958 5.49092V1.11494C48.1958 0.499108 48.6949 0 49.3107 0C49.9266 0 50.4257 0.499108 50.4257 1.11494V5.49092C50.4257 6.10675 49.9266 6.60585 49.3107 6.60585Z" fill="#2EA9E4"/>
<path d="M39.6894 8.35696C39.3771 8.35696 39.0663 8.22647 38.8461 7.97179L36.0064 4.69186C35.6032 4.22629 35.6539 3.52215 36.1195 3.11911C36.5849 2.71593 37.2892 2.76646 37.6922 3.23217L40.5319 6.51211C40.9351 6.97768 40.8844 7.68182 40.4188 8.08485C40.2078 8.26762 39.9481 8.35696 39.6894 8.35696V8.35696Z" fill="#2EA9E4"/>
<path d="M58.9318 8.35691C58.673 8.35691 58.4134 8.26743 58.2025 8.0848C57.7369 7.68177 57.6862 6.97763 58.0894 6.51206L60.9291 3.23212C61.332 2.76655 62.0363 2.71588 62.5018 3.11906C62.9674 3.5221 63.0181 4.22624 62.6149 4.69181L59.7752 7.97174C59.5548 8.22642 59.244 8.35691 58.9318 8.35691V8.35691Z" fill="#2EA9E4"/>
<path d="M69.1252 20.6213L63.2928 12.868C62.6667 12.0357 61.6709 11.5388 60.6294 11.5388H54.3143H44.3074H37.9921C36.9505 11.5388 35.9548 12.0357 35.3287 12.868L29.4963 20.6213C28.4842 21.9666 28.6362 23.861 29.8497 25.0278L47.0006 41.5177C47.6483 42.1405 48.4795 42.4517 49.3108 42.4517C50.1419 42.4517 50.9731 42.1405 51.6209 41.5177L68.772 25.0278C69.9855 23.861 70.1374 21.9668 69.1252 20.6213ZM40.3944 23.7596L46.8719 38.3004L31.748 23.7596H40.3944ZM42.8356 23.7596H55.7863L49.3109 38.2957L42.8356 23.7596ZM58.2273 23.7596H66.8734L51.7501 38.3L58.2273 23.7596ZM61.5108 14.2085L67.0181 21.5296H58.1679L55.8167 13.7685H60.6291C60.9742 13.7687 61.3036 13.9332 61.5108 14.2085V14.2085ZM53.487 13.7687L55.838 21.5298H42.7836L45.1344 13.7687H53.487ZM37.1106 14.2085C37.318 13.9332 37.6474 13.7685 37.9921 13.7685H42.8047L40.4538 21.5296H31.6033L37.1106 14.2085Z" fill="#006EA3"/>
<path d="M14.5058 67.3099C13.89 67.3099 13.3909 66.8108 13.3909 66.195V63.7768C13.3909 63.161 13.89 62.6619 14.5058 62.6619C15.1216 62.6619 15.6207 63.161 15.6207 63.7768V66.195C15.6207 66.8108 15.1216 67.3099 14.5058 67.3099Z" fill="#006EA3"/>
</g>
<defs>
<clipPath id="clip0_1_1308">
<rect width="75" height="75" fill="white"/>
</clipPath>
</defs>
</svg>
