<svg width="75" height="75" viewBox="0 0 75 75" fill="none" xmlns="http://www.w3.org/2000/svg">
<g clip-path="url(#clip0_1_1283)">
<path d="M54.5688 46.7535C54.5688 61.2919 42.7842 73.0766 28.2471 73.0766H28.2456C13.707 73.0751 1.92383 61.2921 1.92383 46.7535C1.92383 32.2165 13.707 20.4333 28.2456 20.4319H28.2471C42.784 20.432 54.5688 32.2165 54.5688 46.7535Z" fill="#F0F7FF"/>
<path d="M54.5683 46.7535C54.5683 61.2919 42.7837 73.0766 28.2466 73.0766H28.2451V20.432H28.2466C42.7835 20.432 54.5683 32.2165 54.5683 46.7535Z" fill="#DFE7F4"/>
<path d="M2.19731 75C1.63496 75 1.07261 74.7854 0.643701 74.3563C-0.214404 73.4984 -0.214404 72.1071 0.643701 71.249L8.27494 63.6178C9.1329 62.7599 10.5242 62.7599 11.3823 63.6178C12.2404 64.4758 12.2404 65.8671 11.3823 66.7252L3.75107 74.3563C3.32202 74.7854 2.75967 75 2.19731 75Z" fill="#47568C"/>
<path d="M54.2942 75C53.7319 75 53.1695 74.7854 52.7406 74.3563L45.1094 66.7252C44.2513 65.8673 44.2513 64.4759 45.1094 63.6178C45.9674 62.7599 47.3587 62.7599 48.2168 63.6178L55.848 71.249C56.7061 72.1069 56.7061 73.4982 55.848 74.3563C55.4188 74.7854 54.8564 75 54.2942 75Z" fill="#29376D"/>
<path d="M35.8052 46.755C35.8052 50.9298 32.4214 54.3136 28.2451 54.3136C24.0703 54.3136 20.6865 50.9298 20.6865 46.755C20.6865 42.5787 24.0703 39.1949 28.2451 39.1949C32.4214 39.1951 35.8052 42.5789 35.8052 46.755Z" fill="#FFE14D"/>
<path d="M35.8052 46.755C35.8052 50.9298 32.4214 54.3136 28.2451 54.3136V39.1951C32.4214 39.1951 35.8052 42.5789 35.8052 46.755Z" fill="#FABE2C"/>
<path d="M28.2451 18.5087C12.6709 18.5087 0 31.1794 0 46.7549C0 62.3291 12.6709 74.9999 28.2451 74.9999C43.8208 74.9999 56.4917 62.3291 56.4917 46.7549C56.4918 31.1794 43.8209 18.5087 28.2451 18.5087ZM28.2451 70.6054C15.0938 70.6054 4.39453 59.9063 4.39453 46.7549C4.39453 33.6023 15.0938 22.9031 28.2451 22.9031C41.3979 22.9031 52.0972 33.6023 52.0972 46.7549C52.0973 59.9063 41.3979 70.6054 28.2451 70.6054Z" fill="#2EA9E4"/>
<path d="M28.2451 27.2976C17.5166 27.2976 8.78906 36.0266 8.78906 46.755C8.78906 57.4833 17.5166 66.2108 28.2451 66.2108C38.9736 66.2108 47.7026 57.4833 47.7026 46.755C47.7026 36.0266 38.9736 27.2976 28.2451 27.2976ZM28.2451 61.8165C19.9409 61.8165 13.1836 55.0591 13.1836 46.7551C13.1836 38.4495 19.9409 31.6923 28.2451 31.6923C36.5508 31.6923 43.3081 38.4496 43.3081 46.7551C43.3083 55.0591 36.5508 61.8165 28.2451 61.8165Z" fill="#2EA9E4"/>
<path d="M28.2451 36.0867C22.3638 36.0867 17.5781 40.8723 17.5781 46.755C17.5781 52.6363 22.3638 57.4219 28.2451 57.4219C34.1279 57.4219 38.9136 52.6363 38.9136 46.755C38.9136 40.8723 34.1279 36.0867 28.2451 36.0867ZM28.2451 53.0274C24.7866 53.0274 21.9727 50.2135 21.9727 46.755C21.9727 43.295 24.7866 40.481 28.2451 40.481C31.7051 40.481 34.519 43.295 34.519 46.755C34.519 50.2135 31.7051 53.0274 28.2451 53.0274Z" fill="#FABE2C"/>
<path d="M38.9136 46.755C38.9136 52.6363 34.1279 57.422 28.2451 57.422V53.0275C31.7051 53.0275 34.519 50.2135 34.519 46.755C34.519 43.295 31.7051 40.4811 28.2451 40.4811V36.0865C34.1279 36.0867 38.9136 40.8723 38.9136 46.755Z" fill="#FF9100"/>
<path d="M47.7026 46.755C47.7026 57.4835 38.9736 66.2108 28.2451 66.2108V61.8163C36.5508 61.8163 43.3081 55.059 43.3081 46.755C43.3081 38.4493 36.5508 31.6921 28.2451 31.6921V27.2976C38.9735 27.2976 47.7026 36.0266 47.7026 46.755Z" fill="#068DCD"/>
<path d="M56.4917 46.755C56.4917 62.329 43.8208 74.9999 28.2451 74.9999V70.6054C41.3979 70.6054 52.0971 59.9062 52.0971 46.755C52.0971 33.6023 41.3979 22.9031 28.2451 22.9031V18.5085C43.8208 18.5087 56.4917 31.1794 56.4917 46.755Z" fill="#068DCD"/>
<path d="M55.0272 23.0818L29.7996 48.3077C29.3704 48.7369 28.8079 48.9522 28.2454 48.9522C27.6843 48.9522 27.1218 48.7369 26.6926 48.3077C25.8342 47.4493 25.8342 46.0592 26.6926 45.2008L51.9187 19.9734C52.7771 19.1165 54.1687 19.1165 55.0271 19.9734C55.8842 20.8319 55.8842 22.2234 55.0272 23.0818Z" fill="#47568C"/>
<path d="M55.027 23.0818L29.7993 48.3077C29.3701 48.7369 28.8076 48.9522 28.2451 48.9522C27.6841 48.9522 27.1216 48.7369 26.6924 48.3077L55.0268 19.9734C55.8839 20.8319 55.8839 22.2234 55.027 23.0818Z" fill="#29376D"/>
<path d="M74.357 13.1005L64.8794 22.5766C64.4956 22.9618 63.9815 23.1903 63.438 23.2182L53.5855 23.7221C53.5474 23.7235 53.5093 23.725 53.4727 23.725C52.8911 23.725 52.3316 23.495 51.9185 23.0819C51.479 22.6425 51.2461 22.036 51.2783 21.4149L51.7822 11.5624C51.8101 11.0189 52.0386 10.5048 52.4239 10.121L61.8999 0.643589C62.5577 -0.014126 63.5596 -0.186978 64.399 0.21439C65.2398 0.615757 65.7364 1.50199 65.6382 2.42777L64.8238 10.1768L72.5728 9.36234C73.4986 9.26566 74.3848 9.76078 74.7862 10.6016C75.1861 11.4408 75.0147 12.4428 74.357 13.1005Z" fill="#FF645A"/>
<path d="M74.3574 13.1005L64.8799 22.5765C64.4961 22.9618 63.9819 23.1903 63.4385 23.2181L53.5859 23.7221C53.5479 23.7235 53.5098 23.725 53.4731 23.725C52.8916 23.725 52.332 23.495 51.9189 23.0819L64.8242 10.1768L72.5732 9.36233C73.499 9.26565 74.3852 9.76076 74.7866 10.6016C75.1865 11.4408 75.0151 12.4427 74.3574 13.1005Z" fill="#FF3053"/>
</g>
<defs>
<clipPath id="clip0_1_1283">
<rect width="75" height="75" fill="white"/>
</clipPath>
</defs>
</svg>
