<svg width="129" height="30" viewBox="0 0 129 30" fill="none" xmlns="http://www.w3.org/2000/svg">
<path d="M112.855 0.0595703H105.601V17.6871C105.615 21.3962 106.581 24.2669 108.497 26.2993C110.417 28.3345 113.262 29.3651 117.031 29.3911C120.804 29.3651 123.669 28.3345 125.626 26.2993C127.583 24.2669 128.568 21.3962 128.579 17.6871V0.0595703H121.329V16.9326C121.314 18.9794 120.92 20.4104 120.145 21.2257C119.367 22.0293 118.329 22.4182 117.031 22.3922C115.762 22.4182 114.752 22.0163 114 21.1866C113.249 20.3569 112.867 18.9389 112.855 16.9326V0.0595703Z" fill="white"/>
<path d="M101.056 28.9052V22.2965H90.0324L101.134 6.00452V0.0375977H81.9103V6.41648H92.4045L81.2295 22.9383V28.9052H101.056Z" fill="white"/>
<path d="M65.025 0.0375977H54.8994V28.9052H65.025C67.5141 28.8936 69.7502 28.3357 71.7334 27.2313C73.7282 26.1299 75.3023 24.5109 76.4558 22.3745C77.6237 20.2352 78.2207 17.6102 78.2467 14.4996C78.2207 11.519 77.631 8.95328 76.4775 6.80242C75.3095 4.65155 73.734 2.98637 71.7508 1.80686C69.7705 0.641808 67.5285 0.0520524 65.025 0.0375977ZM64.9686 6.41648C65.356 6.41648 65.8677 6.5191 66.5037 6.72436C67.1513 6.91805 67.8118 7.30111 68.4854 7.87351C69.159 8.42857 69.73 9.24527 70.1983 10.3236C70.6638 11.3846 70.9037 12.7766 70.9182 14.4996C70.9037 16.185 70.6695 17.5524 70.2157 18.6018C69.7618 19.6512 69.198 20.4549 68.5245 21.0129C67.8653 21.5564 67.212 21.9322 66.5644 22.1403C65.9139 22.334 65.382 22.4251 64.9686 22.4135H62.1499V6.41648H64.9686Z" fill="white"/>
<path d="M49.677 0.0595703H42.4265V16.9326C42.412 18.9794 42.0174 20.4104 41.2426 21.2257C40.4649 22.0293 39.4271 22.4182 38.1291 22.3922C36.8599 22.4182 35.8495 22.0163 35.0979 21.1866C34.3463 20.3569 33.9646 18.9389 33.9531 16.9326V0.0595703H26.6982V17.6871C26.7127 21.3962 27.6783 24.2669 29.595 26.2993C31.5146 28.3345 34.3593 29.3651 38.1291 29.3911C41.9017 29.3651 44.7667 28.3345 46.7238 26.2993C48.681 24.2669 49.6654 21.3962 49.677 17.6871V0.0595703Z" fill="white"/>
<path d="M24.1622 0.0375977H15.4936L12.5015 4.42172C11.7239 8.78127 12.2674 11.9657 14.132 13.9749L24.1622 0.0375977Z" fill="#3B5998"/>
<path d="M7.23315 0.0375977H0L0.147439 10.6532L7.23315 0.0375977Z" fill="white"/>
<path d="M0.147439 16.7241L0 28.9051H7.23315L0.147439 16.7241Z" fill="white"/>
<path d="M14.133 13.975C12.2683 11.9658 11.7248 8.78143 12.5025 4.42188L5.87207 14.1355L11.8477 22.8994C13.2324 24.8999 14.6157 26.9019 15.9976 28.9053H24.6878L14.133 13.975Z" fill="#0F9CD8"/>
</svg>
