<svg width="34" height="35" viewBox="0 0 34 35" fill="none" xmlns="http://www.w3.org/2000/svg">
<path d="M23.1493 16.8152L23.1492 16.8151C23.1454 16.8202 23.1432 16.8228 23.1411 16.8251C23.1264 16.8422 23.1199 16.8498 22.5442 17.7523C22.2174 18.2648 21.7074 19.0652 20.9083 20.3194C20.1119 21.5694 19.0282 23.2702 17.5523 25.5861L17.4258 25.7846L17.2993 25.5861L11.7769 16.9208L23.1493 16.8152ZM23.1493 16.8152L23.1522 16.811C23.989 15.6262 24.4312 14.2324 24.4312 12.7803C24.4312 8.89034 21.2898 5.72402 17.4258 5.72402C13.5538 5.72402 10.4203 8.88906 10.4203 12.7803C10.4203 14.2302 10.871 15.6726 11.7556 16.8896L23.1493 16.8152ZM21.6399 21.4485L21.5163 21.6424L21.7436 21.6774C23.0519 21.8785 24.8071 22.2768 26.2309 22.9494C27.6667 23.6276 28.7016 24.5525 28.7016 25.7803C28.7016 26.4811 28.3589 27.1067 27.7381 27.6575C27.1156 28.2099 26.2215 28.6786 25.1459 29.0575C22.9957 29.815 20.1572 30.2006 17.4258 30.2006C14.5042 30.2006 11.7533 29.7901 9.67938 29.0494C8.1942 28.519 7.31188 27.919 6.80176 27.3458C6.29439 26.7757 6.15 26.2266 6.15 25.7803C6.15 24.5528 7.18605 23.6277 8.62256 22.9493C10.0471 22.2765 11.8022 21.8781 13.1079 21.6774L13.3352 21.6425L13.2116 21.4486L10.7572 17.5973L10.7575 17.5972L10.7523 17.5901C9.73069 16.176 9.19688 14.4909 9.19688 12.7803C9.19688 8.2325 12.8965 4.50059 17.4258 4.50059C21.9698 4.50059 25.6547 8.23976 25.6547 12.7803C25.6547 14.4921 25.1319 16.134 24.1426 17.5294L24.1424 17.5297C24.1326 17.5437 24.1288 17.5483 24.1251 17.5531C24.0979 17.5882 24.0753 17.6269 21.6399 21.4485ZM14.1117 22.8609L14.0608 22.781L13.9667 22.7927C11.729 23.071 10.0958 23.5682 9.01727 24.1105C8.47836 24.3815 8.07284 24.6663 7.7998 24.9451C7.5297 25.2209 7.37344 25.5075 7.37344 25.7803C7.37344 26.1761 7.6691 26.5662 8.13795 26.9186C8.61484 27.2771 9.30648 27.624 10.1783 27.9275C11.9236 28.535 14.4163 28.9771 17.4258 28.9771C20.4528 28.9771 22.9456 28.5323 24.6866 27.9233C25.5564 27.6191 26.2447 27.2718 26.7188 26.9138C27.1849 26.5619 27.4781 26.1732 27.4781 25.7803C27.4781 25.5075 27.3219 25.2209 27.0518 24.9451C26.7787 24.6663 26.3732 24.3815 25.8343 24.1105C24.7557 23.5682 23.1224 23.071 20.8847 22.7927L20.7906 22.781L20.7397 22.8609L17.9416 27.2516L17.9416 27.2517C17.8293 27.4278 17.6347 27.5346 17.4257 27.5346C17.2167 27.5346 17.0222 27.4279 16.9099 27.2516L16.7834 27.3323L16.9099 27.2516L14.1117 22.8609Z" fill="white" stroke="#030E40" stroke-width="0.3"/>
<path d="M13.7672 12.7803C13.7672 10.7631 15.4086 9.12168 17.4258 9.12168C19.443 9.12168 21.0844 10.7631 21.0844 12.7803C21.0844 14.7975 19.443 16.4389 17.4258 16.4389C15.4086 16.4389 13.7672 14.7975 13.7672 12.7803ZM14.9906 12.7803C14.9906 14.1232 16.0829 15.2154 17.4258 15.2154C18.7687 15.2154 19.8609 14.1232 19.8609 12.7803C19.8609 11.4374 18.7687 10.3451 17.4258 10.3451C16.0829 10.3451 14.9906 11.4374 14.9906 12.7803Z" fill="white" stroke="#030E40" stroke-width="0.3"/>
</svg>
