<svg width="27" height="31" viewBox="0 0 27 31" fill="none" xmlns="http://www.w3.org/2000/svg">
<g clip-path="url(#clip0_1_1167)">
<path d="M15.3419 29.1367H9.96154V12.9956H15.3419V15.6858C15.9083 14.9652 16.6272 14.3788 17.4469 13.9689C18.2667 13.5589 19.167 13.3354 20.0833 13.3144C21.6859 13.3233 23.2195 13.9673 24.3479 15.1053C25.4762 16.2432 26.1073 17.7822 26.1026 19.3848V29.1367H20.7223V20.0573C20.6182 19.3304 20.2551 18.6655 19.6997 18.1851C19.1444 17.7046 18.4342 17.4409 17.6998 17.4425C17.3712 17.4529 17.048 17.5295 16.7497 17.6679C16.4514 17.8063 16.1841 18.0035 15.9639 18.2477C15.7437 18.4919 15.5751 18.778 15.4682 19.089C15.3613 19.4 15.3184 19.7293 15.3419 20.0573V29.1367ZM7.27136 29.1367H1.89099V12.9956H7.27136V29.1367ZM4.58117 10.3054C3.86769 10.3054 3.18343 10.022 2.67893 9.51748C2.17442 9.01297 1.89099 8.32871 1.89099 7.61523C1.89099 6.90175 2.17442 6.21749 2.67893 5.71298C3.18343 5.20848 3.86769 4.92505 4.58117 4.92505C5.29465 4.92505 5.97891 5.20848 6.48342 5.71298C6.98793 6.21749 7.27136 6.90175 7.27136 7.61523C7.27136 8.32871 6.98793 9.01297 6.48342 9.51748C5.97891 10.022 5.29465 10.3054 4.58117 10.3054Z" fill="white"/>
</g>
<defs>
<clipPath id="clip0_1_1167">
<rect width="26.4262" height="29.8361" fill="white" transform="translate(0.279297 0.350586)"/>
</clipPath>
</defs>
</svg>
