<svg width="126" height="30" viewBox="0 0 126 30" fill="none" xmlns="http://www.w3.org/2000/svg">
<path d="M110.563 0.788086H103.463V18.0386C103.477 21.6683 104.422 24.4777 106.298 26.4665C108.176 28.4582 110.96 29.4668 114.649 29.4922C118.341 29.4668 121.145 28.4582 123.06 26.4665C124.975 24.4777 125.939 21.6683 125.95 18.0386V0.788086H118.855V17.3002C118.841 19.3032 118.454 20.7036 117.696 21.5014C116.935 22.2879 115.919 22.6684 114.649 22.643C113.407 22.6684 112.418 22.2752 111.683 21.4632C110.947 20.6513 110.574 19.2636 110.563 17.3002V0.788086Z" fill="white"/>
<path d="M99.0153 29.0167V22.5493H88.2279L99.0917 6.60588V0.766602H80.2795V7.00903H90.5492L79.6133 23.1774V29.0167H99.0153Z" fill="white"/>
<path d="M63.7547 0.766602H53.8457V29.0167H63.7547C66.1905 29.0054 68.3788 28.4594 70.3196 27.3786C72.2717 26.3007 73.8122 24.7164 74.941 22.6257C76.0839 20.5322 76.6681 17.9633 76.6936 14.9192C76.6681 12.0024 76.091 9.49158 74.9622 7.38672C73.8192 5.28186 72.2774 3.6523 70.3366 2.49802C68.3987 1.35789 66.2047 0.780747 63.7547 0.766602ZM63.6995 7.00903C64.0786 7.00903 64.5794 7.10947 65.2018 7.31033C65.8355 7.49988 66.4819 7.87474 67.1411 8.4349C67.8003 8.97809 68.359 9.77732 68.8174 10.8326C69.2728 11.8709 69.5077 13.2331 69.5218 14.9192C69.5077 16.5686 69.2785 17.9068 68.8343 18.9337C68.3902 19.9607 67.8385 20.7472 67.1793 21.2932C66.5343 21.8251 65.8949 22.1929 65.2612 22.3966C64.6246 22.5861 64.1041 22.6752 63.6995 22.6639H60.9411V7.00903H63.6995Z" fill="white"/>
<path d="M48.7352 0.788086H41.6398V17.3002C41.6257 19.3032 41.2395 20.7036 40.4813 21.5014C39.7203 22.2879 38.7046 22.6684 37.4344 22.643C36.1924 22.6684 35.2036 22.2752 34.468 21.4632C33.7325 20.6513 33.359 19.2636 33.3477 17.3002V0.788086H26.248V18.0386C26.2622 21.6683 27.2071 24.4777 29.0828 26.4665C30.9613 28.4582 33.7452 29.4668 37.4344 29.4922C41.1263 29.4668 43.93 28.4582 45.8453 26.4665C47.7606 24.4777 48.7239 21.6683 48.7352 18.0386V0.788086Z" fill="white"/>
<path d="M23.7667 0.766602H15.2836L12.3555 5.05695C11.5945 9.32325 12.1263 12.4395 13.9511 14.4057L23.7667 0.766602Z" fill="white"/>
<path d="M7.19953 0.766602H0.121094L0.265379 11.1551L7.19953 0.766602Z" fill="white"/>
<path d="M0.265379 17.0967L0.121094 29.0171H7.19953L0.265379 17.0967Z" fill="white"/>
<path d="M13.9514 14.4064C12.1266 12.4402 11.5947 9.32392 12.3558 5.05762L5.86719 14.5634L11.715 23.1399C13.0701 25.0976 14.4238 27.0568 15.7761 29.0174H24.2805L13.9514 14.4064Z" fill="white"/>
</svg>
