<svg width="28" height="31" viewBox="0 0 28 31" fill="none" xmlns="http://www.w3.org/2000/svg">
<path d="M25.67 9.15267C24.8277 9.52594 23.9228 9.77814 22.9714 9.89214C23.953 9.3048 24.6874 8.38039 25.0375 7.2914C24.1153 7.83918 23.106 8.22476 22.0534 8.43137C21.3456 7.67563 20.4081 7.17471 19.3864 7.00639C18.3648 6.83806 17.3161 7.01175 16.4033 7.50048C15.4904 7.98922 14.7645 8.76565 14.3381 9.70924C13.9118 10.6528 13.8089 11.7108 14.0454 12.7188C12.1768 12.625 10.3487 12.1393 8.67993 11.2933C7.01114 10.4473 5.53889 9.25977 4.35874 7.80792C3.95521 8.504 3.72318 9.31106 3.72318 10.1706C3.72273 10.9443 3.91327 11.7062 4.27791 12.3887C4.64254 13.0711 5.16999 13.6531 5.81345 14.0828C5.06721 14.059 4.33742 13.8574 3.68485 13.4946V13.5552C3.68477 14.6404 4.06016 15.6922 4.74732 16.5322C5.43447 17.3721 6.39107 17.9485 7.4548 18.1634C6.76253 18.3508 6.03674 18.3784 5.33225 18.2441C5.63237 19.1779 6.21697 19.9945 7.00423 20.5795C7.79148 21.1645 8.74197 21.4887 9.72262 21.5067C8.0579 22.8135 6.00199 23.5224 3.8856 23.5193C3.5107 23.5194 3.13612 23.4975 2.76379 23.4537C4.91205 24.8349 7.41277 25.568 9.96676 25.5651C18.6123 25.5651 23.3386 18.4045 23.3386 12.1943C23.3386 11.9925 23.3336 11.7887 23.3245 11.587C24.2438 10.9221 25.0374 10.0988 25.668 9.1557L25.67 9.15267Z" fill="white"/>
</svg>
