<svg width="122" height="22" viewBox="0 0 122 22" fill="none" xmlns="http://www.w3.org/2000/svg">
<path d="M2.67894 14.1948C3.0545 14.7007 3.46454 15.0571 3.90908 15.264C4.35362 15.4709 4.85181 15.5744 5.40365 15.5744C6.492 15.5744 7.32743 15.1874 7.90993 14.4132C8.49243 13.6391 8.78367 12.5355 8.78367 11.1022C8.78367 10.3434 8.71469 9.69194 8.57673 9.14777C8.44644 8.60359 8.25483 8.15905 8.0019 7.81415C7.74897 7.46159 7.43856 7.20483 7.07067 7.04388C6.70278 6.88292 6.28506 6.80245 5.81753 6.80245C5.15072 6.80245 4.56439 6.95573 4.05854 7.26231C3.56035 7.56889 3.10048 8.00193 2.67894 8.56144V14.1948ZM2.57547 7.15884C3.06599 6.55335 3.63316 6.06666 4.27698 5.69876C4.92079 5.33087 5.65658 5.14692 6.48434 5.14692C7.15881 5.14692 7.76813 5.27722 8.31231 5.53781C8.85649 5.79074 9.32019 6.17013 9.70341 6.67598C10.0866 7.17417 10.3817 7.79499 10.5887 8.53844C10.7956 9.2819 10.8991 10.1365 10.8991 11.1022C10.8991 11.9606 10.7841 12.7616 10.5542 13.505C10.3242 14.2408 9.99083 14.8808 9.55395 15.425C9.12474 15.9615 8.5959 16.3868 7.96741 16.7011C7.34659 17.0077 6.64529 17.161 5.86352 17.161C5.15072 17.161 4.53757 17.0422 4.02405 16.8046C3.5182 16.5593 3.06982 16.2221 2.67894 15.7928V20.9434H0.621032V5.35386H1.85118C2.14243 5.35386 2.32254 5.49566 2.39152 5.77924L2.57547 7.15884ZM19.8216 11.7575C18.8788 11.7882 18.0741 11.8648 17.4073 11.9874C16.7481 12.1024 16.2078 12.2557 15.7862 12.4473C15.3723 12.6389 15.0696 12.865 14.878 13.1256C14.694 13.3862 14.6021 13.6775 14.6021 13.9994C14.6021 14.3059 14.6519 14.5704 14.7515 14.7926C14.8512 15.0149 14.9853 15.1989 15.1539 15.3445C15.3302 15.4824 15.5333 15.5859 15.7632 15.6549C16.0008 15.7162 16.2538 15.7469 16.522 15.7469C16.8822 15.7469 17.2118 15.7124 17.5107 15.6434C17.8096 15.5667 18.0894 15.4594 18.35 15.3215C18.6182 15.1835 18.8712 15.0187 19.1088 14.8271C19.354 14.6355 19.5916 14.4171 19.8216 14.1718V11.7575ZM13.211 6.99789C13.8548 6.37707 14.5484 5.91337 15.2919 5.60679C16.0353 5.30021 16.8593 5.14692 17.7637 5.14692C18.4151 5.14692 18.9938 5.25423 19.4997 5.46883C20.0055 5.68344 20.4309 5.98235 20.7758 6.36557C21.1207 6.74879 21.3813 7.21249 21.5576 7.75667C21.7338 8.30085 21.822 8.89867 21.822 9.55015V17H20.9137C20.7145 17 20.5612 16.9693 20.4539 16.908C20.3466 16.839 20.2623 16.7088 20.201 16.5171L19.971 15.4135C19.6644 15.697 19.3655 15.95 19.0743 16.1722C18.783 16.3868 18.4765 16.5708 18.1545 16.7241C17.8326 16.8697 17.4877 16.9808 17.1198 17.0575C16.7596 17.1418 16.3572 17.1839 15.9127 17.1839C15.4605 17.1839 15.0351 17.1226 14.6366 17C14.238 16.8697 13.8893 16.6781 13.5904 16.4252C13.2991 16.1722 13.0653 15.8542 12.8891 15.4709C12.7204 15.0801 12.6361 14.6202 12.6361 14.0913C12.6361 13.6315 12.7626 13.1908 13.0155 12.7692C13.2685 12.34 13.6785 11.9606 14.2457 11.6311C14.8128 11.3015 15.5525 11.0332 16.4645 10.8263C17.3766 10.6117 18.4956 10.489 19.8216 10.4584V9.55015C19.8216 8.64575 19.6261 7.96361 19.2352 7.50374C18.8443 7.03621 18.2733 6.80245 17.5222 6.80245C17.0164 6.80245 16.591 6.86759 16.2461 6.99789C15.9089 7.12052 15.6138 7.26231 15.3609 7.42327C15.1156 7.57655 14.901 7.71835 14.717 7.84864C14.5408 7.97127 14.3645 8.03259 14.1882 8.03259C14.0502 8.03259 13.9314 7.9981 13.8318 7.92912C13.7322 7.85248 13.6478 7.7605 13.5789 7.6532L13.211 6.99789ZM26.8821 7.68769C27.25 6.89059 27.7022 6.26977 28.2387 5.82523C28.7753 5.37302 29.4306 5.14692 30.2047 5.14692C30.4499 5.14692 30.6837 5.17375 30.906 5.2274C31.1359 5.28105 31.339 5.36536 31.5153 5.48033L31.3658 7.00939C31.3199 7.201 31.2049 7.2968 31.0209 7.2968C30.9136 7.2968 30.7565 7.27381 30.5496 7.22782C30.3426 7.18184 30.1089 7.15884 29.8483 7.15884C29.4804 7.15884 29.1508 7.21249 28.8596 7.3198C28.576 7.4271 28.3192 7.58805 28.0893 7.80266C27.867 8.0096 27.6639 8.27019 27.48 8.58443C27.3037 8.89101 27.1427 9.24357 26.9971 9.64212V17H24.9392V5.35386H26.1119C26.3341 5.35386 26.4874 5.39602 26.5717 5.48033C26.656 5.56464 26.7135 5.71026 26.7442 5.9172L26.8821 7.68769ZM39.4468 11.7575C38.504 11.7882 37.6993 11.8648 37.0325 11.9874C36.3733 12.1024 35.833 12.2557 35.4114 12.4473C34.9975 12.6389 34.6948 12.865 34.5032 13.1256C34.3192 13.3862 34.2273 13.6775 34.2273 13.9994C34.2273 14.3059 34.2771 14.5704 34.3767 14.7926C34.4764 15.0149 34.6105 15.1989 34.7791 15.3445C34.9554 15.4824 35.1585 15.5859 35.3884 15.6549C35.626 15.7162 35.879 15.7469 36.1472 15.7469C36.5074 15.7469 36.837 15.7124 37.1359 15.6434C37.4348 15.5667 37.7146 15.4594 37.9752 15.3215C38.2434 15.1835 38.4964 15.0187 38.734 14.8271C38.9792 14.6355 39.2168 14.4171 39.4468 14.1718V11.7575ZM32.8362 6.99789C33.48 6.37707 34.1736 5.91337 34.9171 5.60679C35.6605 5.30021 36.4844 5.14692 37.3888 5.14692C38.0403 5.14692 38.619 5.25423 39.1248 5.46883C39.6307 5.68344 40.0561 5.98235 40.401 6.36557C40.7459 6.74879 41.0065 7.21249 41.1828 7.75667C41.359 8.30085 41.4472 8.89867 41.4472 9.55015V17H40.5389C40.3397 17 40.1864 16.9693 40.0791 16.908C39.9718 16.839 39.8875 16.7088 39.8261 16.5171L39.5962 15.4135C39.2896 15.697 38.9907 15.95 38.6995 16.1722C38.4082 16.3868 38.1016 16.5708 37.7797 16.7241C37.4578 16.8697 37.1129 16.9808 36.745 17.0575C36.3848 17.1418 35.9824 17.1839 35.5379 17.1839C35.0857 17.1839 34.6603 17.1226 34.2618 17C33.8632 16.8697 33.5145 16.6781 33.2156 16.4252C32.9243 16.1722 32.6905 15.8542 32.5143 15.4709C32.3456 15.0801 32.2613 14.6202 32.2613 14.0913C32.2613 13.6315 32.3878 13.1908 32.6407 12.7692C32.8936 12.34 33.3037 11.9606 33.8709 11.6311C34.438 11.3015 35.1777 11.0332 36.0897 10.8263C37.0018 10.6117 38.1208 10.489 39.4468 10.4584V9.55015C39.4468 8.64575 39.2513 7.96361 38.8604 7.50374C38.4695 7.03621 37.8985 6.80245 37.1474 6.80245C36.6416 6.80245 36.2162 6.86759 35.8713 6.99789C35.5341 7.12052 35.239 7.26231 34.986 7.42327C34.7408 7.57655 34.5262 7.71835 34.3422 7.84864C34.1659 7.97127 33.9897 8.03259 33.8134 8.03259C33.6754 8.03259 33.5566 7.9981 33.457 7.92912C33.3573 7.85248 33.273 7.7605 33.2041 7.6532L32.8362 6.99789ZM52.1522 8.12456C51.769 7.61104 51.3551 7.25465 50.9106 7.05537C50.466 6.84843 49.9678 6.74496 49.416 6.74496C48.3353 6.74496 47.5037 7.13202 46.9212 7.90613C46.3387 8.68024 46.0475 9.78392 46.0475 11.2172C46.0475 11.976 46.1126 12.6274 46.2429 13.1716C46.3732 13.7081 46.5648 14.1527 46.8177 14.5052C47.0707 14.8501 47.3811 15.103 47.749 15.264C48.1169 15.425 48.5346 15.5054 49.0021 15.5054C49.6766 15.5054 50.2629 15.3521 50.7611 15.0456C51.267 14.739 51.7307 14.3059 52.1522 13.7464V8.12456ZM54.1986 0.0653908V17H52.98C52.6887 17 52.5048 16.8582 52.4281 16.5746L52.2442 15.1605C51.746 15.7584 51.1788 16.2412 50.5427 16.6091C49.9065 16.977 49.1707 17.161 48.3353 17.161C47.6685 17.161 47.063 17.0345 46.5188 16.7816C45.9747 16.521 45.511 16.1416 45.1277 15.6434C44.7445 15.1452 44.4494 14.5244 44.2425 13.7809C44.0355 13.0375 43.9321 12.1829 43.9321 11.2172C43.9321 10.3588 44.047 9.56165 44.277 8.82586C44.5069 8.08241 44.8365 7.43859 45.2657 6.89442C45.6949 6.35024 46.2199 5.92486 46.8407 5.61829C47.4692 5.30404 48.1743 5.14692 48.9561 5.14692C49.6689 5.14692 50.2782 5.26955 50.7841 5.51482C51.2976 5.75241 51.7536 6.08582 52.1522 6.51503V0.0653908H54.1986ZM59.5922 5.35386V17H57.5458V5.35386H59.5922ZM60.029 1.69792C60.029 1.89719 59.9869 2.08497 59.9026 2.26126C59.8259 2.42987 59.7186 2.58316 59.5807 2.72112C59.4504 2.85142 59.2933 2.95489 59.1093 3.03153C58.933 3.10818 58.7452 3.1465 58.546 3.1465C58.3467 3.1465 58.1589 3.10818 57.9826 3.03153C57.814 2.95489 57.6646 2.85142 57.5343 2.72112C57.404 2.58316 57.3005 2.42987 57.2239 2.26126C57.1472 2.08497 57.1089 1.89719 57.1089 1.69792C57.1089 1.49864 57.1472 1.31086 57.2239 1.13458C57.3005 0.950635 57.404 0.793514 57.5343 0.663217C57.6646 0.525258 57.814 0.417956 57.9826 0.34131C58.1589 0.264666 58.3467 0.226344 58.546 0.226344C58.7452 0.226344 58.933 0.264666 59.1093 0.34131C59.2933 0.417956 59.4504 0.525258 59.5807 0.663217C59.7186 0.793514 59.8259 0.950635 59.9026 1.13458C59.9869 1.31086 60.029 1.49864 60.029 1.69792ZM67.0129 11.3091C67.4268 11.3091 67.7909 11.2517 68.1051 11.1367C68.4193 11.0217 68.6838 10.8608 68.8984 10.6538C69.113 10.4469 69.2739 10.2016 69.3812 9.91804C69.4885 9.6268 69.5422 9.30872 69.5422 8.96382C69.5422 8.25103 69.3237 7.68386 68.8869 7.26231C68.4577 6.84077 67.833 6.62999 67.0129 6.62999C66.1852 6.62999 65.5528 6.84077 65.116 7.26231C64.6868 7.68386 64.4722 8.25103 64.4722 8.96382C64.4722 9.30872 64.5258 9.6268 64.6331 9.91804C64.7481 10.2016 64.9129 10.4469 65.1275 10.6538C65.3421 10.8608 65.6065 11.0217 65.9207 11.1367C66.235 11.2517 66.599 11.3091 67.0129 11.3091ZM70.7034 17.6323C70.7034 17.3487 70.6229 17.1188 70.4619 16.9425C70.301 16.7662 70.0825 16.6283 69.8066 16.5286C69.5384 16.429 69.2241 16.36 68.8639 16.3217C68.5037 16.2757 68.1204 16.2412 67.7142 16.2182C67.3157 16.1952 66.9094 16.1722 66.4956 16.1492C66.0817 16.1263 65.6831 16.0879 65.2999 16.0343C64.8707 16.2336 64.5181 16.4865 64.2422 16.7931C63.974 17.092 63.8398 17.4445 63.8398 17.8508C63.8398 18.1113 63.905 18.3528 64.0353 18.575C64.1732 18.805 64.3802 19.0004 64.6561 19.1614C64.932 19.33 65.2769 19.4603 65.6908 19.5523C66.1123 19.6519 66.6067 19.7017 67.1739 19.7017C67.7257 19.7017 68.2201 19.6519 68.6569 19.5523C69.0938 19.4526 69.4617 19.3108 69.7606 19.1269C70.0672 18.9429 70.301 18.7245 70.4619 18.4716C70.6229 18.2186 70.7034 17.9389 70.7034 17.6323ZM72.7843 5.81373V6.57251C72.7843 6.82544 72.6233 6.98639 72.3014 7.05537L70.9793 7.22782C71.2399 7.73368 71.3702 8.29318 71.3702 8.90634C71.3702 9.47351 71.259 9.99086 71.0368 10.4584C70.8222 10.9183 70.5232 11.313 70.14 11.6425C69.7568 11.9721 69.2969 12.225 68.7604 12.4013C68.2239 12.5776 67.6414 12.6658 67.0129 12.6658C66.4687 12.6658 65.9552 12.6006 65.4724 12.4703C65.2271 12.6236 65.0393 12.7884 64.909 12.9647C64.7787 13.1333 64.7136 13.3057 64.7136 13.482C64.7136 13.7579 64.8247 13.9687 65.047 14.1143C65.2769 14.2523 65.5758 14.3519 65.9437 14.4132C66.3116 14.4746 66.7293 14.5129 67.1969 14.5282C67.6721 14.5435 68.1549 14.5704 68.6454 14.6087C69.1436 14.6393 69.6265 14.6968 70.094 14.7811C70.5692 14.8654 70.9908 15.0034 71.3587 15.195C71.7266 15.3866 72.0216 15.6511 72.2439 15.9883C72.4738 16.3255 72.5888 16.7624 72.5888 17.2989C72.5888 17.7971 72.4623 18.28 72.2094 18.7475C71.9642 19.215 71.6078 19.6289 71.1402 19.9891C70.6727 20.357 70.0979 20.6483 69.4157 20.8629C68.7413 21.0852 67.9786 21.1963 67.1279 21.1963C66.2771 21.1963 65.5337 21.112 64.8975 20.9434C64.2614 20.7747 63.7325 20.5486 63.311 20.2651C62.8894 19.9815 62.5714 19.6519 62.3568 19.2763C62.1498 18.9084 62.0464 18.5214 62.0464 18.1152C62.0464 17.5403 62.2265 17.0537 62.5867 16.6551C62.9469 16.2565 63.4413 15.9385 64.0698 15.7009C63.7249 15.5476 63.4489 15.3445 63.242 15.0916C63.0427 14.831 62.9431 14.4822 62.9431 14.0454C62.9431 13.8767 62.9738 13.7043 63.0351 13.528C63.0964 13.3441 63.1884 13.1639 63.311 12.9877C63.4413 12.8037 63.5984 12.6313 63.7823 12.4703C63.9663 12.3094 64.1809 12.1676 64.4262 12.0449C63.8513 11.723 63.403 11.2976 63.0811 10.7688C62.7591 10.2323 62.5982 9.61147 62.5982 8.90634C62.5982 8.33917 62.7055 7.82565 62.9201 7.36578C63.1424 6.89825 63.4489 6.50353 63.8398 6.18162C64.2307 5.85205 64.6944 5.59913 65.2309 5.42284C65.7751 5.24656 66.3691 5.15842 67.0129 5.15842C67.5188 5.15842 67.9901 5.2159 68.427 5.33087C68.8639 5.43817 69.2624 5.59913 69.6227 5.81373H72.7843ZM74.9004 17V5.35386H76.1305C76.4218 5.35386 76.6019 5.49566 76.6708 5.77924L76.8203 6.9749C77.2495 6.44605 77.7324 6.01301 78.2689 5.67577C78.8054 5.33853 79.4262 5.16992 80.1313 5.16992C80.9131 5.16992 81.5454 5.38835 82.0283 5.82523C82.5188 6.2621 82.8714 6.85226 83.086 7.59572C83.2546 7.17417 83.4692 6.81011 83.7298 6.50353C83.9981 6.19695 84.297 5.94403 84.6266 5.74475C84.9561 5.54548 85.3049 5.39985 85.6727 5.30788C86.0483 5.2159 86.4277 5.16992 86.8109 5.16992C87.4241 5.16992 87.9683 5.26955 88.4434 5.46883C88.9263 5.66044 89.3325 5.94403 89.6621 6.31958C89.9993 6.69514 90.2561 7.15884 90.4324 7.71068C90.6087 8.25486 90.6968 8.87951 90.6968 9.58464V17H88.6389V9.58464C88.6389 8.67257 88.4396 7.98277 88.0411 7.51524C87.6425 7.04004 87.0677 6.80245 86.3166 6.80245C85.9793 6.80245 85.6574 6.86376 85.3508 6.98639C85.0519 7.10136 84.7875 7.27381 84.5576 7.50374C84.3276 7.73368 84.1437 8.02492 84.0057 8.37749C83.8754 8.72239 83.8103 9.12477 83.8103 9.58464V17H81.7524V9.58464C81.7524 8.64958 81.5646 7.95211 81.189 7.49225C80.8135 7.03238 80.2655 6.80245 79.545 6.80245C79.0392 6.80245 78.5716 6.94041 78.1424 7.21633C77.7132 7.48458 77.3185 7.85247 76.9583 8.32001V17H74.9004ZM107.199 8.02109C106.763 7.36195 106.276 6.89825 105.739 6.62999C105.21 6.36174 104.605 6.22761 103.923 6.22761C103.248 6.22761 102.658 6.35024 102.152 6.5955C101.646 6.84077 101.221 7.1895 100.876 7.6417C100.539 8.08624 100.282 8.62275 100.106 9.25124C99.9373 9.87206 99.853 10.558 99.853 11.3091C99.853 13.0107 100.163 14.2638 100.784 15.0686C101.413 15.8657 102.317 16.2642 103.497 16.2642C104.249 16.2642 104.935 16.0688 105.555 15.6779C106.176 15.287 106.724 14.739 107.199 14.0339V8.02109ZM108.292 0.272331V17H107.694C107.494 17 107.379 16.9004 107.349 16.7011L107.234 14.8961C106.728 15.5859 106.138 16.1339 105.463 16.5401C104.789 16.9463 104.03 17.1495 103.187 17.1495C101.777 17.1495 100.681 16.6628 99.899 15.6894C99.1172 14.716 98.7263 13.2559 98.7263 11.3091C98.7263 10.4737 98.8336 9.69578 99.0482 8.97532C99.2705 8.24719 99.5924 7.61871 100.014 7.08986C100.435 6.55335 100.953 6.13181 101.566 5.82523C102.187 5.51865 102.9 5.36536 103.704 5.36536C104.478 5.36536 105.149 5.50715 105.716 5.79074C106.283 6.07432 106.778 6.49587 107.199 7.05537V0.272331H108.292ZM113.161 7.49225C113.69 6.84843 114.292 6.33491 114.966 5.95169C115.648 5.56847 116.411 5.37686 117.254 5.37686C117.882 5.37686 118.434 5.47649 118.909 5.67577C119.392 5.87505 119.791 6.16246 120.105 6.53802C120.419 6.91358 120.657 7.36578 120.818 7.89463C120.979 8.42348 121.059 9.0213 121.059 9.68811V17H119.956V9.68811C119.956 8.61509 119.71 7.77583 119.22 7.17034C118.729 6.55718 117.982 6.2506 116.978 6.2506C116.235 6.2506 115.537 6.44222 114.886 6.82544C114.242 7.201 113.667 7.72601 113.161 8.40048V17H112.057V0.272331H113.161V7.49225Z" fill="#8A817C"/>
</svg>
