<svg width="180" height="40" viewBox="0 0 180 40" fill="none" xmlns="http://www.w3.org/2000/svg">
<path d="M5.34039 28.9279C5.88556 29.6623 6.48079 30.1796 7.12609 30.48C7.77138 30.7804 8.49456 30.9306 9.29562 30.9306C10.8755 30.9306 12.0882 30.3687 12.9338 29.245C13.7793 28.1213 14.2021 26.5192 14.2021 24.4387C14.2021 23.3372 14.102 22.3915 13.9017 21.6016C13.7126 20.8117 13.4344 20.1664 13.0673 19.6657C12.7001 19.1539 12.2495 18.7812 11.7155 18.5476C11.1814 18.3139 10.5751 18.1971 9.89642 18.1971C8.92847 18.1971 8.07735 18.4196 7.34304 18.8646C6.61986 19.3097 5.95231 19.9383 5.34039 20.7505V28.9279ZM5.19019 18.7144C5.90225 17.8355 6.72556 17.129 7.66013 16.595C8.5947 16.0609 9.66277 15.7939 10.8644 15.7939C11.8434 15.7939 12.7279 15.9831 13.5179 16.3613C14.3078 16.7285 14.9809 17.2792 15.5372 18.0135C16.0935 18.7367 16.5218 19.6379 16.8222 20.7171C17.1226 21.7963 17.2728 23.0368 17.2728 24.4387C17.2728 25.6848 17.1059 26.8474 16.7722 27.9266C16.4384 28.9947 15.9544 29.9237 15.3203 30.7136C14.6972 31.4925 13.9295 32.1099 13.0172 32.5661C12.116 33.0111 11.098 33.2336 9.96317 33.2336C8.92847 33.2336 8.0384 33.0612 7.29297 32.7163C6.55867 32.3603 5.90781 31.8707 5.34039 31.2477V38.7242H2.35311V16.0943H4.1388C4.56159 16.0943 4.82304 16.3001 4.92318 16.7118L5.19019 18.7144ZM30.2249 25.3899C28.8564 25.4344 27.6882 25.5457 26.7202 25.7237C25.7634 25.8906 24.979 26.1131 24.3671 26.3913C23.7663 26.6694 23.3268 26.9976 23.0487 27.3759C22.7817 27.7542 22.6482 28.177 22.6482 28.6442C22.6482 29.0893 22.7205 29.4731 22.8651 29.7958C23.0098 30.1184 23.2045 30.3854 23.4492 30.5968C23.7051 30.7971 24 30.9473 24.3337 31.0474C24.6786 31.1364 25.0458 31.1809 25.4352 31.1809C25.9581 31.1809 26.4365 31.1309 26.8704 31.0307C27.3043 30.9195 27.7104 30.7637 28.0887 30.5634C28.4781 30.3632 28.8453 30.124 29.1902 29.8458C29.5462 29.5677 29.8911 29.2506 30.2249 28.8946V25.3899ZM20.6288 18.4808C21.5634 17.5796 22.5703 16.9065 23.6495 16.4615C24.7287 16.0164 25.9247 15.7939 27.2376 15.7939C28.1833 15.7939 29.0233 15.9497 29.7576 16.2612C30.4919 16.5727 31.1094 17.0066 31.61 17.5629C32.1107 18.1192 32.489 18.7923 32.7448 19.5823C33.0007 20.3722 33.1287 21.24 33.1287 22.1857V33H31.8103C31.521 33 31.2985 32.9555 31.1427 32.8665C30.987 32.7664 30.8646 32.5772 30.7756 32.2991L30.4418 30.697C29.9968 31.1086 29.5629 31.4758 29.1401 31.7984C28.7173 32.1099 28.2723 32.377 27.805 32.5995C27.3377 32.8109 26.837 32.9722 26.303 33.0834C25.7801 33.2058 25.196 33.267 24.5507 33.267C23.8943 33.267 23.2768 33.178 22.6982 33C22.1197 32.8109 21.6135 32.5327 21.1796 32.1656C20.7568 31.7984 20.4174 31.3367 20.1615 30.7804C19.9168 30.213 19.7944 29.5454 19.7944 28.7778C19.7944 28.1102 19.978 27.4705 20.3451 26.8585C20.7123 26.2355 21.3075 25.6848 22.1308 25.2064C22.9541 24.728 24.0278 24.3385 25.3517 24.0382C26.6757 23.7266 28.3001 23.5486 30.2249 23.5041V22.1857C30.2249 20.8729 29.9411 19.8827 29.3737 19.2151C28.8063 18.5364 27.9774 18.1971 26.8871 18.1971C26.1528 18.1971 25.5353 18.2917 25.0347 18.4808C24.5451 18.6588 24.1168 18.8646 23.7496 19.0983C23.3936 19.3208 23.0821 19.5266 22.8151 19.7158C22.5592 19.8938 22.3033 19.9828 22.0474 19.9828C21.8471 19.9828 21.6747 19.9327 21.53 19.8326C21.3854 19.7213 21.263 19.5878 21.1629 19.4321L20.6288 18.4808ZM40.4741 19.4821C41.0081 18.325 41.6645 17.4239 42.4433 16.7786C43.2222 16.1221 44.1734 15.7939 45.2971 15.7939C45.6531 15.7939 45.9925 15.8329 46.3151 15.9107C46.6489 15.9886 46.9437 16.111 47.1996 16.2779L46.9827 18.4975C46.9159 18.7756 46.749 18.9147 46.482 18.9147C46.3263 18.9147 46.0982 18.8813 45.7978 18.8146C45.4974 18.7478 45.158 18.7144 44.7798 18.7144C44.2457 18.7144 43.7673 18.7923 43.3445 18.9481C42.9329 19.1039 42.5602 19.3375 42.2264 19.649C41.9037 19.9494 41.6089 20.3277 41.3419 20.7838C41.086 21.2289 40.8524 21.7407 40.641 22.3192V33H37.6537V16.0943H39.3559C39.6786 16.0943 39.9011 16.1555 40.0235 16.2779C40.1459 16.4003 40.2293 16.6117 40.2738 16.9121L40.4741 19.4821ZM58.713 25.3899C57.3446 25.4344 56.1763 25.5457 55.2084 25.7237C54.2516 25.8906 53.4672 26.1131 52.8553 26.3913C52.2545 26.6694 51.815 26.9976 51.5369 27.3759C51.2699 27.7542 51.1363 28.177 51.1363 28.6442C51.1363 29.0893 51.2087 29.4731 51.3533 29.7958C51.4979 30.1184 51.6926 30.3854 51.9374 30.5968C52.1933 30.7971 52.4881 30.9473 52.8219 31.0474C53.1668 31.1364 53.534 31.1809 53.9234 31.1809C54.4463 31.1809 54.9247 31.1309 55.3586 31.0307C55.7925 30.9195 56.1986 30.7637 56.5769 30.5634C56.9663 30.3632 57.3334 30.124 57.6783 29.8458C58.0344 29.5677 58.3793 29.2506 58.713 28.8946V25.3899ZM49.117 18.4808C50.0516 17.5796 51.0585 16.9065 52.1377 16.4615C53.2169 16.0164 54.4129 15.7939 55.7257 15.7939C56.6714 15.7939 57.5114 15.9497 58.2457 16.2612C58.9801 16.5727 59.5975 17.0066 60.0982 17.5629C60.5989 18.1192 60.9771 18.7923 61.233 19.5823C61.4889 20.3722 61.6169 21.24 61.6169 22.1857V33H60.2985C60.0092 33 59.7867 32.9555 59.6309 32.8665C59.4751 32.7664 59.3528 32.5772 59.2638 32.2991L58.93 30.697C58.485 31.1086 58.051 31.4758 57.6283 31.7984C57.2055 32.1099 56.7604 32.377 56.2932 32.5995C55.8259 32.8109 55.3252 32.9722 54.7912 33.0834C54.2683 33.2058 53.6842 33.267 53.0389 33.267C52.3824 33.267 51.765 33.178 51.1864 33C50.6079 32.8109 50.1016 32.5327 49.6677 32.1656C49.245 31.7984 48.9056 31.3367 48.6497 30.7804C48.405 30.213 48.2826 29.5454 48.2826 28.7778C48.2826 28.1102 48.4662 27.4705 48.8333 26.8585C49.2005 26.2355 49.7957 25.6848 50.619 25.2064C51.4423 24.728 52.5159 24.3385 53.8399 24.0382C55.1639 23.7266 56.7883 23.5486 58.713 23.5041V22.1857C58.713 20.8729 58.4293 19.8827 57.8619 19.2151C57.2945 18.5364 56.4656 18.1971 55.3753 18.1971C54.641 18.1971 54.0235 18.2917 53.5228 18.4808C53.0333 18.6588 52.605 18.8646 52.2378 19.0983C51.8818 19.3208 51.5703 19.5266 51.3032 19.7158C51.0473 19.8938 50.7914 19.9828 50.5356 19.9828C50.3353 19.9828 50.1628 19.9327 50.0182 19.8326C49.8736 19.7213 49.7512 19.5878 49.6511 19.4321L49.117 18.4808ZM77.1564 20.1163C76.6001 19.3709 75.9993 18.8535 75.354 18.5642C74.7087 18.2639 73.9856 18.1137 73.1845 18.1137C71.6158 18.1137 70.4086 18.6755 69.563 19.7992C68.7175 20.9229 68.2947 22.525 68.2947 24.6056C68.2947 25.707 68.3893 26.6527 68.5784 27.4427C68.7676 28.2215 69.0457 28.8668 69.4129 29.3785C69.78 29.8792 70.2306 30.2464 70.7646 30.48C71.2987 30.7136 71.905 30.8305 72.5837 30.8305C73.5628 30.8305 74.4139 30.6079 75.1371 30.1629C75.8714 29.7179 76.5445 29.0893 77.1564 28.2771V20.1163ZM80.127 8.4175V33H78.358C77.9352 33 77.6682 32.7942 77.557 32.3825L77.2899 30.3298C76.5668 31.1976 75.7434 31.8985 74.82 32.4326C73.8966 32.9666 72.8285 33.2336 71.6158 33.2336C70.6478 33.2336 69.7689 33.0501 68.9789 32.6829C68.189 32.3046 67.5159 31.7539 66.9596 31.0307C66.4033 30.3076 65.975 29.4064 65.6746 28.3272C65.3742 27.248 65.224 26.0074 65.224 24.6056C65.224 23.3595 65.3909 22.2024 65.7246 21.1343C66.0584 20.0551 66.5368 19.1205 67.1599 18.3306C67.7829 17.5407 68.545 16.9232 69.4462 16.4782C70.3585 16.022 71.3821 15.7939 72.517 15.7939C73.5517 15.7939 74.4362 15.9719 75.1705 16.328C75.9159 16.6729 76.5779 17.1568 77.1564 17.7799V8.4175H80.127ZM87.9564 16.0943V33H84.9858V16.0943H87.9564ZM88.5906 10.7873C88.5906 11.0766 88.5294 11.3492 88.407 11.605C88.2957 11.8498 88.14 12.0723 87.9397 12.2726C87.7506 12.4617 87.5225 12.6119 87.2555 12.7232C86.9996 12.8345 86.727 12.8901 86.4377 12.8901C86.1484 12.8901 85.8759 12.8345 85.62 12.7232C85.3752 12.6119 85.1582 12.4617 84.9691 12.2726C84.78 12.0723 84.6298 11.8498 84.5185 11.605C84.4072 11.3492 84.3516 11.0766 84.3516 10.7873C84.3516 10.498 84.4072 10.2254 84.5185 9.96955C84.6298 9.70253 84.78 9.47445 84.9691 9.28531C85.1582 9.08505 85.3752 8.92929 85.62 8.81803C85.8759 8.70677 86.1484 8.65114 86.4377 8.65114C86.727 8.65114 86.9996 8.70677 87.2555 8.81803C87.5225 8.92929 87.7506 9.08505 87.9397 9.28531C88.14 9.47445 88.2957 9.70253 88.407 9.96955C88.5294 10.2254 88.5906 10.498 88.5906 10.7873ZM98.7284 24.7391C99.3292 24.7391 99.8577 24.6556 100.314 24.4887C100.77 24.3219 101.154 24.0882 101.465 23.7878C101.777 23.4874 102.011 23.1314 102.166 22.7197C102.322 22.297 102.4 21.8352 102.4 21.3346C102.4 20.2999 102.083 19.4766 101.449 18.8646C100.826 18.2527 99.9189 17.9468 98.7284 17.9468C97.5268 17.9468 96.609 18.2527 95.9748 18.8646C95.3517 19.4766 95.0402 20.2999 95.0402 21.3346C95.0402 21.8352 95.1181 22.297 95.2739 22.7197C95.4408 23.1314 95.68 23.4874 95.9915 23.7878C96.303 24.0882 96.6868 24.3219 97.143 24.4887C97.5992 24.6556 98.1276 24.7391 98.7284 24.7391ZM104.086 33.9179C104.086 33.5062 103.969 33.1725 103.735 32.9166C103.501 32.6607 103.184 32.4604 102.784 32.3158C102.394 32.1711 101.938 32.071 101.415 32.0154C100.892 31.9486 100.336 31.8985 99.7464 31.8652C99.1679 31.8318 98.5782 31.7984 97.9774 31.765C97.3766 31.7317 96.7981 31.676 96.2418 31.5981C95.6188 31.8874 95.107 32.2546 94.7064 32.6996C94.317 33.1335 94.1223 33.6453 94.1223 34.235C94.1223 34.6132 94.2169 34.9637 94.4061 35.2864C94.6063 35.6201 94.9067 35.9038 95.3072 36.1375C95.7078 36.3822 96.2084 36.5714 96.8092 36.7049C97.4211 36.8495 98.1388 36.9219 98.9621 36.9219C99.7631 36.9219 100.481 36.8495 101.115 36.7049C101.749 36.5603 102.283 36.3544 102.717 36.0874C103.162 35.8204 103.501 35.5033 103.735 35.1362C103.969 34.769 104.086 34.3629 104.086 33.9179ZM107.106 16.7619V17.8633C107.106 18.2305 106.873 18.4641 106.405 18.5642L104.486 18.8146C104.864 19.5489 105.053 20.3611 105.053 21.2511C105.053 22.0744 104.892 22.8254 104.569 23.5041C104.258 24.1717 103.824 24.7446 103.268 25.2231C102.711 25.7015 102.044 26.0686 101.265 26.3245C100.486 26.5804 99.6407 26.7083 98.7284 26.7083C97.9385 26.7083 97.1931 26.6138 96.4921 26.4246C96.1361 26.6472 95.8635 26.8864 95.6744 27.1423C95.4853 27.387 95.3907 27.6374 95.3907 27.8932C95.3907 28.2938 95.552 28.5997 95.8747 28.8111C96.2084 29.0114 96.6423 29.156 97.1764 29.245C97.7104 29.334 98.3168 29.3897 98.9955 29.4119C99.6853 29.4342 100.386 29.4731 101.098 29.5287C101.821 29.5732 102.522 29.6567 103.201 29.7791C103.891 29.9015 104.503 30.1017 105.037 30.3799C105.571 30.658 105.999 31.0419 106.322 31.5314C106.656 32.0209 106.822 32.6551 106.822 33.4339C106.822 34.1571 106.639 34.858 106.272 35.5367C105.916 36.2154 105.398 36.8162 104.72 37.3391C104.041 37.8731 103.207 38.2959 102.216 38.6074C101.237 38.9301 100.13 39.0914 98.8953 39.0914C97.6604 39.0914 96.5811 38.969 95.6577 38.7242C94.7343 38.4795 93.9666 38.1513 93.3547 37.7396C92.7427 37.3279 92.281 36.8495 91.9695 36.3044C91.6691 35.7703 91.5189 35.2085 91.5189 34.6188C91.5189 33.7844 91.7804 33.0779 92.3033 32.4993C92.8262 31.9208 93.5438 31.4591 94.4561 31.1142C93.9555 30.8917 93.5549 30.5968 93.2545 30.2297C92.9653 29.8514 92.8206 29.3452 92.8206 28.711C92.8206 28.4662 92.8651 28.2159 92.9541 27.96C93.0431 27.693 93.1766 27.4315 93.3547 27.1756C93.5438 26.9086 93.7719 26.6583 94.0389 26.4246C94.3059 26.191 94.6174 25.9852 94.9735 25.8072C94.139 25.3399 93.4882 24.7224 93.0209 23.9547C92.5536 23.1759 92.32 22.2747 92.32 21.2511C92.32 20.4278 92.4757 19.6824 92.7872 19.0148C93.1099 18.3362 93.5549 17.7632 94.1223 17.2959C94.6898 16.8175 95.3629 16.4503 96.1417 16.1944C96.9316 15.9386 97.7939 15.8106 98.7284 15.8106C99.4627 15.8106 100.147 15.8941 100.781 16.0609C101.415 16.2167 101.994 16.4503 102.517 16.7619H107.106ZM110.178 33V16.0943H111.964C112.386 16.0943 112.648 16.3001 112.748 16.7118L112.965 18.4474C113.588 17.6797 114.289 17.0511 115.068 16.5616C115.847 16.0721 116.748 15.8273 117.771 15.8273C118.906 15.8273 119.824 16.1444 120.525 16.7786C121.237 17.4127 121.749 18.2694 122.06 19.3486C122.305 18.7367 122.617 18.2082 122.995 17.7632C123.384 17.3182 123.818 16.951 124.297 16.6617C124.775 16.3725 125.281 16.1611 125.815 16.0276C126.36 15.8941 126.911 15.8273 127.467 15.8273C128.358 15.8273 129.147 15.9719 129.837 16.2612C130.538 16.5394 131.128 16.951 131.606 17.4962C132.096 18.0413 132.469 18.7144 132.724 19.5155C132.98 20.3054 133.108 21.2122 133.108 22.2358V33H130.121V22.2358C130.121 20.9118 129.832 19.9105 129.253 19.2318C128.675 18.542 127.84 18.1971 126.75 18.1971C126.26 18.1971 125.793 18.2861 125.348 18.4641C124.914 18.631 124.53 18.8813 124.196 19.2151C123.863 19.5489 123.596 19.9717 123.395 20.4835C123.206 20.9841 123.112 21.5682 123.112 22.2358V33H120.124V22.2358C120.124 20.8784 119.852 19.866 119.307 19.1984C118.762 18.5309 117.966 18.1971 116.92 18.1971C116.186 18.1971 115.507 18.3974 114.884 18.7979C114.261 19.1873 113.688 19.7213 113.165 20.4V33H110.178ZM157.064 19.9661C156.429 19.0093 155.723 18.3362 154.944 17.9468C154.176 17.5574 153.298 17.3627 152.307 17.3627C151.328 17.3627 150.472 17.5407 149.737 17.8967C149.003 18.2527 148.385 18.759 147.885 19.4154C147.395 20.0607 147.023 20.8395 146.767 21.7518C146.522 22.653 146.4 23.6487 146.4 24.7391C146.4 27.209 146.85 29.0281 147.751 30.1963C148.664 31.3534 149.976 31.9319 151.69 31.9319C152.78 31.9319 153.776 31.6482 154.677 31.0808C155.578 30.5134 156.374 29.7179 157.064 28.6943V19.9661ZM158.649 8.7179V33H157.781C157.492 33 157.325 32.8554 157.281 32.5661L157.114 29.946C156.379 30.9473 155.523 31.7428 154.544 32.3325C153.565 32.9221 152.463 33.217 151.239 33.217C149.192 33.217 147.601 32.5105 146.466 31.0975C145.331 29.6845 144.764 27.565 144.764 24.7391C144.764 23.5264 144.92 22.3971 145.231 21.3513C145.554 20.2943 146.021 19.382 146.633 18.6143C147.245 17.8355 147.996 17.2236 148.886 16.7786C149.787 16.3335 150.822 16.111 151.99 16.111C153.114 16.111 154.087 16.3168 154.911 16.7285C155.734 17.1401 156.452 17.7521 157.064 18.5642V8.7179H158.649ZM165.718 19.1984C166.485 18.2639 167.359 17.5184 168.338 16.9621C169.328 16.4058 170.435 16.1277 171.659 16.1277C172.571 16.1277 173.372 16.2723 174.062 16.5616C174.763 16.8509 175.342 17.2681 175.798 17.8133C176.254 18.3584 176.599 19.0148 176.832 19.7825C177.066 20.5502 177.183 21.418 177.183 22.386V33H175.581V22.386C175.581 20.8284 175.225 19.6101 174.513 18.7311C173.801 17.8411 172.716 17.396 171.258 17.396C170.179 17.396 169.167 17.6742 168.221 18.2305C167.287 18.7756 166.452 19.5378 165.718 20.5168V33H164.116V8.7179H165.718V19.1984Z" fill="#545B63"/>
</svg>
