<svg width="124" height="23" viewBox="0 0 124 23" fill="none" xmlns="http://www.w3.org/2000/svg">
<g clip-path="url(#clip0_1_944)">
<path d="M9.51384 19.2289C9.49005 20.4964 9.06805 21.4361 8.24783 22.0479C7.42762 22.6597 6.24618 22.9768 4.70354 22.9992C2.7248 22.9992 1.16938 22.5165 0.0372867 21.551L0.68747 20.5971C1.6046 21.6116 2.58296 22.1185 3.62255 22.1176C4.70883 22.1176 5.54094 21.9059 6.11888 21.4826C6.69682 21.0592 6.98623 20.3192 6.98711 19.2625C6.99947 18.9059 6.92379 18.5517 6.76646 18.2298C6.60913 17.9079 6.37478 17.6276 6.0832 17.4128C5.41216 16.9129 4.69808 16.4707 3.94896 16.0911C3.46705 15.8596 2.99483 15.607 2.5323 15.3334C2.07483 15.0641 1.65011 14.7449 1.26629 14.3821C0.880256 14.0182 0.566609 13.5876 0.341234 13.112C0.0982875 12.562 -0.0189664 11.967 -0.002359 11.3682C-0.002359 9.01902 1.9874 7.82077 5.96691 7.77344H8.96806L8.60728 12.3311H7.77473C7.43643 9.80982 6.65277 8.54961 5.42377 8.55047C4.50664 8.55047 3.81945 8.7656 3.36221 9.19585C2.90496 9.6261 2.6759 10.4074 2.67502 11.5399C2.66282 12.1169 2.86147 12.6793 3.23534 13.1262C3.65105 13.6099 4.13155 14.0366 4.6639 14.395C5.1229 14.7246 5.5449 15.0124 5.9299 15.2585C6.3149 15.5046 6.677 15.7219 7.01618 15.9104C7.42409 16.1453 7.78531 16.3604 8.09982 16.5557C8.38978 16.7357 8.6519 16.9552 8.87819 17.2076C9.08545 17.4467 9.24502 17.7217 9.34865 18.0182C9.46415 18.3709 9.51907 18.7399 9.5112 19.1102L9.51384 19.2289Z" fill="#1A455B"/>
<path d="M19.4612 22.8236V22.0117C20.8118 21.7992 21.4871 21.446 21.4871 20.952V13.7444C21.4871 10.1888 20.4299 8.41017 18.3155 8.40844C17.2362 8.40844 16.4327 8.90926 15.905 9.91089C15.3773 10.9125 15.113 12.5199 15.1121 14.7332V20.952C15.1121 21.4468 15.7636 21.8117 17.0666 22.0466V22.821H10.5635V22.0092C11.9141 21.7966 12.5894 21.4434 12.5894 20.9494V1.87334C12.5894 1.40179 11.9378 1.0365 10.6348 0.77749V-0.00341797H15.12V9.11191L15.4451 9.21775C16.0936 8.29873 17.0662 7.76866 18.363 7.62754H18.5428C22.1214 7.62754 23.9107 9.47762 23.9107 13.1778V20.9507C23.9107 21.4455 24.5618 21.8104 25.8639 22.0453V22.8197L19.4612 22.8236Z" fill="#1A455B"/>
<path d="M36.5708 22.8598C35.7779 22.8366 35.3075 22.3065 35.1595 21.2696L34.8344 21.1986C34.0415 22.3525 32.7151 22.9295 30.8553 22.9295C27.792 22.9295 26.2608 21.4103 26.2617 18.3718C26.2855 15.3119 27.8273 13.7811 30.887 13.7793H30.9597C32.0374 13.9507 33.1248 14.0572 34.2159 14.0981L34.3956 13.9213V13.7445C34.3956 10.3291 33.2864 8.5978 31.0681 8.55047H29.8417C29.2867 8.55047 28.8902 9.37484 28.6523 11.0236H27.8594L27.4973 7.77344H30.8196C35.0863 7.77344 37.2206 9.5706 37.2223 13.1649V20.5313C37.2223 21.5191 37.5236 22.0126 38.1262 22.0118L38.1976 22.8598H36.5708ZM31.4341 22.0466C33.4349 22.0466 34.4357 20.6986 34.4366 18.0027V15.1901L34.2912 15.0146C33.958 14.9264 33.6201 14.8561 33.2789 14.8042C32.9799 14.7584 32.6777 14.7347 32.375 14.7332C31.3178 14.7332 30.5157 14.9853 29.9686 15.4896C29.4215 15.9938 29.1501 16.9021 29.1545 18.2144V18.3899C29.2038 20.8277 29.9637 22.0466 31.4341 22.0466Z" fill="#1A455B"/>
<path d="M50.2799 10.2465C50.2716 10.821 50.0385 11.3707 49.6284 11.7825C49.4332 11.9835 49.1972 12.1425 48.9355 12.2492C48.6738 12.3559 48.3922 12.408 48.1086 12.4021C47.868 12.411 47.6283 12.368 47.4066 12.2763C47.1849 12.1847 46.9865 12.0465 46.8255 11.8716C46.4971 11.513 46.3221 11.045 46.3365 10.5641C46.3365 10.0237 46.662 9.50737 47.3131 9.01517L47.2774 8.69764C46.9585 8.55965 46.6139 8.48716 46.2651 8.48466C45.929 8.4846 45.5964 8.5509 45.2872 8.67957C44.933 8.84504 44.6419 9.11627 44.456 9.45402C44.2137 9.84211 44.0208 10.3838 43.8772 11.0791C43.7161 11.982 43.6448 12.8979 43.6644 13.8142V20.9521C43.6644 21.4469 44.3155 21.8117 45.6176 22.0466V22.8211H39.1025V22.0092C40.4531 21.7967 41.1284 21.4434 41.1284 20.9495V9.64635C41.1284 9.17565 40.4773 8.81037 39.1752 8.55049V7.77604H43.6644V8.97773L43.9895 9.08358C44.6159 8.05097 45.5445 7.53467 46.7752 7.53467H46.8836C47.2119 7.53922 47.5389 7.57467 47.8602 7.64051C48.2237 7.71199 48.5721 7.84291 48.891 8.02774C49.2365 8.23463 49.5325 8.51148 49.7592 8.83962C50.0415 9.26617 50.2221 9.74918 50.2878 10.253" fill="#1A455B"/>
<path d="M51.2559 22.8233V22.0114C52.6056 21.7989 53.2804 21.4457 53.2804 20.9517V9.646C53.2804 9.1753 52.6293 8.81002 51.3272 8.55015V7.77569H55.7041V20.9543C55.7041 21.425 56.3432 21.7899 57.6216 22.0489V22.8233H51.2559ZM51.3272 5.26904H56.4639V6.39975H51.3285L51.3272 5.26904Z" fill="#1A455B"/>
<path d="M61.9766 6.02463H61.8828C60.9022 6.02463 59.9785 6.20792 59.9785 7.35024C59.9785 8.49256 60.9036 8.67584 61.8828 8.67584H61.9766V9.59615H61.826C60.0168 9.59615 58.9609 8.76749 58.9609 7.35024C58.9609 5.93298 60.0181 5.10303 61.826 5.10303H61.9766V6.02463Z" fill="#1A455B"/>
<path d="M72.2551 22.8598C71.4622 22.8366 70.9921 22.3065 70.845 21.2696L70.5199 21.1986C69.727 22.3525 68.4007 22.9295 66.5408 22.9295C63.4776 22.9295 61.9464 21.4103 61.9473 18.3718C61.9711 15.3119 63.5128 13.7811 66.5726 13.7793H66.6452C67.7225 13.9507 68.8095 14.0572 69.9001 14.0981L70.0812 13.9213V13.7445C70.0812 10.3291 68.972 8.5978 66.7536 8.55047H65.5233C64.9682 8.55047 64.5718 9.37484 64.3339 11.0236H63.541L63.1789 7.77344H66.5078C70.7745 7.77344 72.9083 9.5706 72.9092 13.1649V20.5313C72.9092 21.5191 73.2105 22.0126 73.8131 22.0118L73.8858 22.8598H72.2551ZM67.1197 22.0466C69.1204 22.0466 70.1213 20.6986 70.1221 18.0027V15.1901L69.9768 15.0146C69.6436 14.9264 69.3056 14.8561 68.9645 14.8042C68.6654 14.7585 68.3633 14.7348 68.0606 14.7332C66.9981 14.7332 66.1959 14.9853 65.6541 15.4896C65.1123 15.9938 64.8409 16.9021 64.8401 18.2144V18.3899C64.8894 20.8277 65.6493 22.0466 67.1197 22.0466Z" fill="#1A455B"/>
<path d="M96.9344 8.55047C95.6799 8.80863 94.9685 9.15025 94.8002 9.57534V9.61018L91.5453 22.8237H90.278L87.1685 10.6002H86.8064L83.9493 22.8237H82.7189L78.7755 9.61018V9.57534C78.5826 9.10464 77.9077 8.76302 76.751 8.55047V7.77602H83.5872V8.55047C82.3326 8.76216 81.7053 9.08011 81.7053 9.50434C81.7053 9.55253 82.2841 12.1198 83.4418 17.2063L83.6228 18.5138H83.9849L86.4813 7.77344H88.8336L91.0801 17.3483L91.2612 18.6197H91.6219L93.7496 9.54048V9.50434C93.7496 9.12744 93.147 8.80949 91.9418 8.55047V7.77602H96.9344V8.55047Z" fill="#30B354"/>
<path d="M98.0293 22.8235V22.0116C99.379 21.7991 100.054 21.4459 100.054 20.9519V9.64618C100.054 9.17549 99.4028 8.81021 98.1007 8.55033V7.77588H102.477V20.9545C102.477 21.4252 103.117 21.7901 104.395 22.0491V22.8235H98.0293Z" fill="#30B354"/>
<path d="M108.303 21.7988L108.448 22.0466H113.981C114.56 22.0466 114.97 21.0454 115.212 19.043H115.972L116.332 22.8237H105.554V20.7443L112.318 8.79701L112.174 8.55047H107.548C106.969 8.55047 106.559 9.55167 106.318 11.5541H105.559L105.197 7.77344H116.194L108.303 21.7988Z" fill="#30B354"/>
<path d="M100.863 2.57078C100.822 2.7076 100.772 2.87411 100.711 3.0716C100.65 3.26908 100.598 3.44333 100.557 3.59823C100.876 3.69813 101.183 3.83142 101.472 3.99578C101.626 4.07468 101.755 4.19512 101.841 4.34288C101.928 4.49064 101.969 4.65953 101.961 4.82961C101.98 5.28668 101.852 5.73814 101.595 6.12037C101.398 6.41531 101.117 6.64733 100.786 6.78769C100.654 6.84264 100.511 6.87097 100.367 6.87097C100.223 6.87097 100.081 6.84264 99.9483 6.78769C99.684 6.67668 99.5214 6.44133 99.4606 6.08164C99.4245 5.82819 99.4452 5.5701 99.5214 5.32526C99.6079 4.97288 99.7147 4.62555 99.8412 4.28491C99.9734 3.92608 100.111 3.58403 100.254 3.25876C100.361 3.00405 100.483 2.75541 100.618 2.51399C100.634 2.47596 100.659 2.44218 100.691 2.41547C100.723 2.38875 100.761 2.36987 100.802 2.36039C100.883 2.34361 100.904 2.41202 100.863 2.56562V2.57078ZM100.527 5.9345C100.711 5.93397 100.892 5.88056 101.045 5.7809C101.189 5.6952 101.314 5.5814 101.411 5.44659C101.313 5.21865 101.155 5.01976 100.954 4.86962C100.85 4.78253 100.728 4.71805 100.597 4.68044C100.465 4.64283 100.327 4.63296 100.191 4.65148C100.152 4.73667 100.106 4.85155 100.059 4.99741C100.01 5.13301 99.9885 5.27701 99.9972 5.42078C100.005 5.54931 100.047 5.67356 100.12 5.7809C100.191 5.88287 100.328 5.9345 100.531 5.9345" fill="#30B354"/>
<path d="M123.77 5.3727C123.546 4.85498 123.17 4.41323 122.691 4.10266C122.211 3.79209 121.648 3.62646 121.073 3.62646C120.497 3.62646 119.934 3.79209 119.455 4.10266C118.975 4.41323 118.6 4.85498 118.375 5.3727C118.111 5.98366 118.072 6.66539 118.266 7.30111C118.46 7.93683 118.874 8.487 119.437 8.85738C120 9.22776 120.678 9.3953 121.354 9.33132C122.03 9.26734 122.662 8.97581 123.142 8.50666C123.554 8.10436 123.833 7.59136 123.945 7.03316C124.057 6.47496 123.996 5.89687 123.77 5.3727ZM123.453 6.48534C123.453 6.94486 123.313 7.39405 123.052 7.77613C122.79 8.1582 122.419 8.456 121.984 8.63184C121.55 8.80769 121.071 8.85371 120.61 8.76406C120.148 8.67441 119.725 8.45313 119.392 8.1282C119.059 7.80328 118.833 7.38929 118.741 6.9386C118.649 6.48792 118.696 6.02076 118.876 5.59623C119.056 5.17169 119.361 4.80883 119.752 4.55353C120.144 4.29824 120.603 4.16198 121.074 4.16198C121.705 4.16198 122.31 4.40676 122.756 4.84247C123.202 5.27819 123.453 5.86914 123.453 6.48534Z" fill="black"/>
<path d="M122.604 5.63184V7.42728H122.259V6.0139L121.895 7.42728H121.536L121.173 6.0139V7.42728H120.828V5.63184H121.383L121.718 6.85676L122.047 5.63184H122.604Z" fill="black"/>
<path d="M120.593 5.63184V5.93516H120.05V7.42728H119.679V5.93516H119.133V5.63184H120.593Z" fill="black"/>
</g>
<defs>
<clipPath id="clip0_1_944">
<rect width="124" height="23" fill="white"/>
</clipPath>
</defs>
</svg>
