<svg width="180" height="34" viewBox="0 0 180 34" fill="none" xmlns="http://www.w3.org/2000/svg">
<path d="M13.8157 27.917C13.7812 29.7569 13.1686 31.1209 11.978 32.009C10.7874 32.8971 9.07245 33.3574 6.83319 33.3899C3.96091 33.3899 1.70311 32.6891 0.0597945 31.2877L1.00358 29.903C2.33486 31.3757 3.75502 32.1114 5.26405 32.1102C6.84087 32.1102 8.04874 31.8029 8.88766 31.1884C9.72658 30.5738 10.1467 29.4996 10.148 27.9657C10.1659 27.4482 10.056 26.934 9.82767 26.4667C9.59929 25.9994 9.25911 25.5927 8.83586 25.2808C7.86181 24.5552 6.82527 23.9132 5.73786 23.3622C5.03834 23.0262 4.35288 22.6596 3.68148 22.2624C3.01743 21.8715 2.40092 21.4082 1.84378 20.8815C1.28343 20.3533 0.828143 19.7282 0.500995 19.0379C0.148341 18.2396 -0.0218609 17.3758 0.00224595 16.5066C0.00224595 13.0966 2.89052 11.3573 8.66706 11.2886H13.0234L12.4998 17.9043H11.2912C10.8002 14.2445 9.66264 12.4152 7.87865 12.4165C6.54737 12.4165 5.54987 12.7288 4.88615 13.3533C4.22243 13.9779 3.88993 15.112 3.88866 16.7558C3.87094 17.5934 4.15929 18.4098 4.702 19.0585C5.30543 19.7606 6.00291 20.3801 6.77565 20.9003C7.44193 21.3787 8.05449 21.7965 8.61335 22.1537C9.1722 22.511 9.69781 22.8264 10.1902 23.0999C10.7823 23.4409 11.3066 23.7532 11.7631 24.0367C12.184 24.2979 12.5645 24.6165 12.893 24.9829C13.1939 25.33 13.4255 25.7291 13.5759 26.1595C13.7436 26.6716 13.8233 27.2072 13.8119 27.7446L13.8157 27.917Z" fill="#545B63"/>
<path d="M28.2546 33.1351V31.9566C30.215 31.648 31.1953 31.1353 31.1953 30.4183V19.956C31.1953 14.7948 29.6606 12.2129 26.5914 12.2104C25.0248 12.2104 23.8585 12.9374 23.0925 14.3913C22.3265 15.8453 21.9428 18.1785 21.9415 21.3912V30.4183C21.9415 31.1365 22.8872 31.6661 24.7787 32.0071V33.1313H15.3389V31.9528C17.2993 31.6443 18.2796 31.1315 18.2796 30.4146V2.72425C18.2796 2.03975 17.3339 1.50952 15.4425 1.13354V0H21.9531V13.2315L22.4249 13.3852C23.3662 12.0512 24.778 11.2817 26.6605 11.0769H26.9214C32.116 11.0769 34.7134 13.7624 34.7134 19.1335V30.4164C34.7134 31.1347 35.6584 31.6643 37.5486 32.0053V33.1295L28.2546 33.1351Z" fill="#545B63"/>
<path d="M53.0904 33.1875C51.9394 33.1538 51.2565 32.3844 51.0417 30.8792L50.5698 30.7762C49.4188 32.4512 47.4935 33.2887 44.7939 33.2887C40.3473 33.2887 38.1247 31.0834 38.126 26.6729C38.1605 22.2312 40.3985 20.0091 44.8399 20.0066H44.9454C46.5097 20.2554 48.0883 20.4099 49.672 20.4693L49.9329 20.2127V19.956C49.9329 14.9984 48.3228 12.4852 45.1027 12.4165H43.3226C42.5169 12.4165 41.9414 13.6131 41.5961 16.0064H40.4452L39.9196 11.2886H44.7421C50.9355 11.2886 54.0335 13.8973 54.0361 19.1147V29.8075C54.0361 31.2414 54.4734 31.9578 55.3482 31.9565L55.4518 33.1875H53.0904ZM45.6341 32.0071C48.5383 32.0071 49.9911 30.0504 49.9924 26.1371V22.0544L49.7814 21.7996C49.2977 21.6716 48.8071 21.5696 48.312 21.4942C47.8779 21.4278 47.4393 21.3934 46.9999 21.3912C45.4653 21.3912 44.3009 21.7571 43.5067 22.4891C42.7126 23.2211 42.3187 24.5395 42.3251 26.4443V26.6991C42.3967 30.2378 43.4997 32.0071 45.6341 32.0071" fill="#545B63"/>
<path d="M72.9903 14.8784C72.9783 15.7123 72.6399 16.5101 72.0446 17.108C71.7614 17.3998 71.4188 17.6305 71.0389 17.7853C70.659 17.9402 70.2502 18.0158 69.8386 18.0073C69.4893 18.0202 69.1414 17.9578 68.8196 17.8248C68.4977 17.6917 68.2097 17.4911 67.976 17.2373C67.4994 16.7167 67.2454 16.0374 67.2662 15.3393C67.2662 14.5549 67.7388 13.8054 68.6838 13.0909L68.632 12.63C68.1691 12.4297 67.6689 12.3245 67.1626 12.3209C66.6748 12.3208 66.1919 12.417 65.7431 12.6038C65.229 12.844 64.8064 13.2377 64.5365 13.728C64.1848 14.2913 63.9048 15.0776 63.6963 16.0869C63.4625 17.3974 63.3591 18.727 63.3875 20.0571V30.4182C63.3875 31.1365 64.3326 31.6661 66.2227 32.0071V33.1312H56.7656V31.9527C58.7261 31.6442 59.7063 31.1315 59.7063 30.4145V14.0071C59.7063 13.3239 58.7613 12.7937 56.8711 12.4164V11.2923H63.3875V13.0366L63.8594 13.1902C64.7686 11.6913 66.1165 10.9419 67.9031 10.9419H68.0604C68.5369 10.9485 69.0116 11 69.478 11.0955C70.0056 11.1993 70.5114 11.3893 70.9742 11.6576C71.4758 11.9579 71.9055 12.3598 72.2345 12.8361C72.6443 13.4553 72.9065 14.1564 73.0018 14.8878" fill="#545B63"/>
<path d="M74.4072 33.1346V31.9561C76.3664 31.6476 77.346 31.1348 77.346 30.4179V14.0068C77.346 13.3235 76.4009 12.7933 74.5108 12.4161V11.2919H80.8641V30.4216C80.8641 31.1049 81.7919 31.6345 83.6475 32.0105V33.1346H74.4072ZM74.5108 7.65332H81.9671V9.29462H74.5127L74.5108 7.65332Z" fill="#545B63"/>
<path d="M89.9693 8.75037H89.8331C88.4097 8.75037 87.0689 9.01642 87.0689 10.6746C87.0689 12.3327 88.4116 12.5988 89.8331 12.5988H89.9693V13.9347H89.7506C87.1245 13.9347 85.5918 12.7318 85.5918 10.6746C85.5918 8.61734 87.1264 7.4126 89.7506 7.4126H89.9693V8.75037Z" fill="#545B63"/>
<path d="M104.889 33.1875C103.738 33.1538 103.056 32.3844 102.842 30.8792L102.371 30.7762C101.22 32.4512 99.2943 33.2887 96.5947 33.2887C92.1481 33.2887 89.9255 31.0834 89.9268 26.6729C89.9613 22.2312 92.1993 20.0091 96.6407 20.0066H96.7462C98.3099 20.2554 99.8878 20.4099 101.471 20.4693L101.734 20.2127V19.956C101.734 14.9984 100.124 12.4852 96.9035 12.4165H95.1176C94.3119 12.4165 93.7364 13.6131 93.3912 16.0064H92.2402L91.7146 11.2886H96.5467C102.74 11.2886 105.838 13.8973 105.839 19.1147V29.8075C105.839 31.2414 106.276 31.9578 107.151 31.9565L107.256 33.1875H104.889ZM97.4349 32.0071C100.339 32.0071 101.792 30.0504 101.793 26.1371V22.0544L101.582 21.7996C101.098 21.6716 100.608 21.5696 100.113 21.4942C99.6787 21.4279 99.2401 21.3934 98.8007 21.3912C97.2584 21.3912 96.094 21.7571 95.3075 22.4891C94.521 23.2211 94.1271 24.5395 94.1259 26.4443V26.6991C94.1975 30.2378 95.3005 32.0071 97.4349 32.0071Z" fill="#545B63"/>
<path d="M140.713 12.4165C138.892 12.7912 137.859 13.2871 137.615 13.9042V13.9547L132.89 33.1351H131.05L126.537 15.3918H126.011L121.864 33.1351H120.078L114.354 13.9547V13.9042C114.074 13.2209 113.094 12.725 111.415 12.4165V11.2923H121.338V12.4165C119.517 12.7238 118.607 13.1853 118.607 13.8011C118.607 13.8711 119.447 17.5977 121.127 24.981L121.39 26.879H121.916L125.539 11.2886H128.954L132.215 25.1871L132.478 27.0327H133.001L136.09 13.8536V13.8011C136.09 13.254 135.215 12.7925 133.466 12.4165V11.2923H140.713V12.4165Z" fill="#545B63"/>
<path d="M142.302 33.1347V31.9562C144.261 31.6477 145.241 31.1349 145.241 30.418V14.0069C145.241 13.3236 144.295 12.7934 142.405 12.4162V11.292H148.759V30.4217C148.759 31.105 149.686 31.6346 151.542 32.0105V33.1347H142.302Z" fill="#545B63"/>
<path d="M157.215 31.6474L157.426 32.0071H165.458C166.298 32.0071 166.893 30.5538 167.244 27.6472H168.347L168.87 33.1351H153.225V30.1166L163.043 12.7744L162.834 12.4165H156.12C155.279 12.4165 154.684 13.8698 154.334 16.7764H153.233L152.707 11.2886H168.669L157.215 31.6474Z" fill="#545B63"/>
<path d="M146.415 3.73673C146.355 3.93534 146.282 4.17704 146.194 4.4637C146.106 4.75037 146.031 5.00331 145.972 5.22814C146.434 5.37315 146.879 5.56664 147.299 5.80522C147.523 5.91974 147.709 6.09458 147.835 6.30906C147.961 6.52354 148.021 6.7687 148.009 7.01558C148.037 7.67905 147.851 8.33438 147.478 8.88921C147.192 9.31734 146.784 9.65414 146.304 9.85787C146.111 9.93764 145.904 9.97876 145.695 9.97876C145.487 9.97876 145.28 9.93764 145.087 9.85787C144.704 9.69674 144.468 9.35511 144.38 8.833C144.327 8.4651 144.357 8.09045 144.468 7.73505C144.593 7.22355 144.748 6.71937 144.932 6.22491C145.124 5.70404 145.323 5.20753 145.531 4.73538C145.686 4.36565 145.863 4.00473 146.06 3.65429C146.083 3.59909 146.119 3.55006 146.166 3.51128C146.212 3.47251 146.267 3.4451 146.327 3.43133C146.444 3.40698 146.474 3.50628 146.415 3.72924V3.73673ZM145.928 8.6194C146.195 8.61864 146.457 8.54111 146.68 8.39644C146.889 8.27205 147.07 8.10686 147.211 7.91117C147.068 7.5803 146.839 7.2916 146.547 7.07366C146.396 6.94725 146.219 6.85364 146.029 6.79905C145.838 6.74446 145.637 6.73013 145.44 6.75702C145.383 6.88068 145.316 7.04743 145.249 7.25915C145.176 7.45599 145.146 7.66501 145.158 7.8737C145.17 8.06028 145.231 8.24063 145.337 8.39644C145.44 8.54446 145.638 8.6194 145.933 8.6194" fill="#545B63"/>
<path d="M179.666 7.80383C179.341 7.05231 178.796 6.4111 178.1 5.96028C177.404 5.50947 176.587 5.26904 175.751 5.26904C174.916 5.26904 174.099 5.50947 173.403 5.96028C172.706 6.4111 172.161 7.05231 171.836 7.80383C171.452 8.69069 171.396 9.68026 171.677 10.6031C171.959 11.5258 172.56 12.3245 173.377 12.8621C174.195 13.3997 175.179 13.6429 176.16 13.55C177.141 13.4572 178.059 13.034 178.755 12.353C179.353 11.769 179.759 11.0244 179.921 10.2141C180.083 9.40383 179.995 8.5647 179.666 7.80383V7.80383ZM179.206 9.4189C179.206 10.0859 179.004 10.738 178.624 11.2926C178.245 11.8472 177.706 12.2794 177.075 12.5347C176.444 12.79 175.749 12.8568 175.08 12.7266C174.41 12.5965 173.795 12.2753 173.312 11.8036C172.829 11.332 172.5 10.7311 172.367 10.0768C172.233 9.42264 172.302 8.74454 172.563 8.12829C172.825 7.51204 173.267 6.98532 173.835 6.61475C174.403 6.24417 175.07 6.04637 175.753 6.04637C176.669 6.04637 177.547 6.40169 178.195 7.03417C178.842 7.66664 179.206 8.52445 179.206 9.4189" fill="#545B63"/>
<path d="M177.975 8.18018V10.7864H177.474V8.73477L176.945 10.7864H176.425L175.897 8.73477V10.7864H175.396V8.18018H176.202L176.687 9.95824L177.165 8.18018H177.975Z" fill="#545B63"/>
<path d="M175.055 8.18018V8.62048H174.267V10.7864H173.728V8.62048H172.936V8.18018H175.055Z" fill="#545B63"/>
</svg>
