<svg width="34" height="35" viewBox="0 0 34 35" fill="none" xmlns="http://www.w3.org/2000/svg">
<path d="M21.6484 4.93262H11.9475C11.2609 4.93339 10.6026 5.2065 10.1171 5.69202C9.63155 6.17754 9.35844 6.83583 9.35767 7.52246V27.1787C9.35844 27.8653 9.63155 28.5236 10.1171 29.0092C10.6026 29.4947 11.2609 29.7678 11.9475 29.7686H21.6484C22.335 29.7678 22.9933 29.4947 23.4788 29.0092C23.9644 28.5236 24.2375 27.8653 24.2382 27.1787V7.52246C24.2375 6.83583 23.9644 6.17754 23.4788 5.69202C22.9933 5.2065 22.335 4.93339 21.6484 4.93262ZM19.7136 5.8623V6.46315C19.7134 6.58451 19.6651 6.70084 19.5792 6.78663C19.4934 6.87242 19.377 6.92068 19.2556 6.92082H14.3416C14.2202 6.92068 14.1039 6.87242 14.0181 6.78662C13.9323 6.70082 13.8841 6.58449 13.8839 6.46315V5.8623H19.7136ZM23.3083 27.1787C23.3078 27.6189 23.1327 28.0408 22.8215 28.3521C22.5103 28.6633 22.0883 28.8384 21.6481 28.8389H11.9475C11.5074 28.8384 11.0854 28.6633 10.7741 28.3521C10.4629 28.0408 10.2878 27.6189 10.2874 27.1787V7.52246C10.2878 7.08231 10.4629 6.66033 10.7741 6.3491C11.0854 6.03786 11.5074 5.8628 11.9475 5.8623H12.9532V6.46315C12.9536 6.83097 13.0999 7.1836 13.36 7.44369C13.6201 7.70378 13.9727 7.85009 14.3405 7.85051H19.2546C19.6224 7.85009 19.9751 7.70379 20.2352 7.44371C20.4954 7.18363 20.6417 6.83099 20.6422 6.46315V5.8623H21.6484C22.0885 5.86287 22.5104 6.03796 22.8216 6.34919C23.1328 6.66042 23.3078 7.08236 23.3083 7.52246V27.1787Z" fill="white"/>
<path d="M19.6562 26.6255H13.9397C13.8164 26.6255 13.6982 26.6745 13.611 26.7616C13.5238 26.8488 13.4749 26.967 13.4749 27.0903C13.4749 27.2136 13.5238 27.3319 13.611 27.419C13.6982 27.5062 13.8164 27.5552 13.9397 27.5552H19.6562C19.7795 27.5552 19.8977 27.5062 19.9849 27.419C20.0721 27.3319 20.1211 27.2136 20.1211 27.0903C20.1211 26.967 20.0721 26.8488 19.9849 26.7616C19.8977 26.6745 19.7795 26.6255 19.6562 26.6255Z" fill="white"/>
</svg>
