<svg width="35" height="34" viewBox="0 0 35 34" fill="none" xmlns="http://www.w3.org/2000/svg">
<mask id="path-1-inside-1_101_382" fill="white">
<path d="M27.4782 6.18534C24.7979 5.00218 21.2543 4.35059 17.5 4.35059C13.7457 4.35059 10.2021 5.00218 7.52179 6.18534C4.60588 7.4725 3 9.27379 3 11.2575C3 11.964 3.47533 13.1065 4.20038 14.7692L4.21834 14.8104C4.43619 15.317 4.82982 15.7278 5.32669 15.9671C5.82356 16.2064 6.39019 16.2581 6.92214 16.1126L10.7337 15.0913C11.3225 14.9328 11.8245 14.5471 12.1294 14.019C12.4343 13.4909 12.5173 12.8633 12.3601 12.2741L12.2904 12.0136C12.2391 11.8221 12.229 11.6219 12.2608 11.4262C12.2926 11.2306 12.3655 11.0439 12.4748 10.8785C12.584 10.7131 12.7271 10.5727 12.8946 10.4667C13.0621 10.3606 13.2502 10.2913 13.4464 10.2634C16.1359 9.88968 18.8641 9.88968 21.5536 10.2634C21.7499 10.2914 21.938 10.3607 22.1055 10.4667C22.273 10.5728 22.4161 10.7132 22.5253 10.8786C22.6346 11.044 22.7075 11.2308 22.7393 11.4264C22.771 11.6221 22.7609 11.8223 22.7096 12.0138L22.6399 12.2744C22.4827 12.8636 22.5657 13.4911 22.8706 14.0193C23.1755 14.5474 23.6775 14.933 24.2663 15.0916L28.0779 16.1129C28.2752 16.166 28.4787 16.193 28.6831 16.1931C29.1298 16.193 29.5666 16.062 29.9395 15.8163C30.3125 15.5706 30.6053 15.2209 30.7817 14.8106L30.7998 14.7689C31.5248 13.1061 32 11.9639 32 11.2575C32 9.27379 30.3941 7.4725 27.4782 6.18534ZM29.1385 14.0439L29.1203 14.0856C29.0751 14.1938 28.9918 14.2817 28.8861 14.3326C28.7805 14.3834 28.6598 14.3938 28.547 14.3617L24.7355 13.3404C24.6109 13.3062 24.5049 13.2244 24.4403 13.1125C24.3757 13.0007 24.3579 12.8679 24.3906 12.743L24.4603 12.4824C24.578 12.0433 24.6012 11.5842 24.5283 11.1355C24.4555 10.6868 24.2883 10.2586 24.0378 9.87925C23.7873 9.4999 23.4591 9.17801 23.075 8.93483C22.6909 8.69166 22.2596 8.53272 21.8096 8.46853C18.9504 8.07061 16.0499 8.07061 13.1907 8.46853C12.7406 8.53271 12.3093 8.69163 11.9252 8.9348C11.5411 9.17797 11.213 9.49985 10.9624 9.8792C10.7119 10.2585 10.5447 10.6867 10.4719 11.1354C10.399 11.5842 10.4222 12.0433 10.5399 12.4824L10.6097 12.7429C10.6424 12.8678 10.6246 13.0006 10.56 13.1125C10.4954 13.2243 10.3893 13.3061 10.2648 13.3402L6.45298 14.3617C6.34019 14.3938 6.21953 14.3835 6.11387 14.3326C6.00821 14.2816 5.9249 14.1938 5.87972 14.0855L5.86177 14.0444C5.52544 13.2734 4.82564 11.6689 4.8125 11.2577C4.8125 10.0532 6.06681 8.80882 8.25376 7.84344C10.7088 6.75985 13.9922 6.16309 17.5 6.16309C21.0078 6.16309 24.2912 6.75985 26.7462 7.84344C28.9332 8.80882 30.1875 10.0532 30.1875 11.2553C30.1744 11.6688 29.4747 13.273 29.1385 14.0439ZM29.2107 21.5527L21.2924 16.5733V14.912C21.2919 14.497 21.1268 14.0991 20.8334 13.8056C20.5399 13.5122 20.142 13.3471 19.727 13.3466H15.2728C14.8578 13.3471 14.4599 13.5122 14.1664 13.8056C13.8729 14.0991 13.7079 14.497 13.7074 14.912V16.5733L5.78932 21.5527C5.00581 22.0455 4.57433 22.9174 4.57433 24.0083V27.7112C4.57505 28.3498 4.82904 28.962 5.28059 29.4136C5.73214 29.8652 6.34437 30.1192 6.98297 30.1199H28.017C28.6556 30.1192 29.2678 29.8652 29.7194 29.4136C30.1709 28.9621 30.425 28.3498 30.4257 27.7112V24.0083C30.4257 22.9174 29.9942 22.0453 29.2107 21.5527ZM28.6132 27.7112C28.613 27.8693 28.5501 28.0208 28.4384 28.1326C28.3266 28.2444 28.175 28.3072 28.017 28.3074H6.98297C6.82496 28.3071 6.67351 28.2442 6.56181 28.1325C6.45011 28.0207 6.38729 27.8692 6.38711 27.7112V24.0083C6.38711 23.7504 6.43486 23.2879 6.75442 23.087L15.0961 17.8413C15.2259 17.7597 15.3328 17.6465 15.4069 17.5124C15.481 17.3782 15.5199 17.2274 15.5199 17.0742V15.1591H19.4801V17.074C19.4801 17.2273 19.519 17.3781 19.5931 17.5123C19.6672 17.6464 19.7741 17.7596 19.9039 17.8412L28.2459 23.087C28.5654 23.288 28.6132 23.7504 28.6132 24.0083V27.7112ZM17.5 18.6049C16.6554 18.6049 15.8298 18.8554 15.1276 19.3246C14.4253 19.7938 13.878 20.4607 13.5548 21.241C13.2316 22.0212 13.147 22.8798 13.3118 23.7082C13.4766 24.5365 13.8833 25.2974 14.4805 25.8946C15.0777 26.4918 15.8385 26.8985 16.6669 27.0633C17.4952 27.228 18.3538 27.1435 19.1341 26.8203C19.9144 26.497 20.5813 25.9497 21.0505 25.2475C21.5197 24.5452 21.7701 23.7196 21.7701 22.8751C21.7688 21.743 21.3185 20.6576 20.518 19.857C19.7175 19.0565 18.6321 18.6062 17.5 18.6049ZM17.5 25.3328C17.0139 25.3328 16.5387 25.1886 16.1346 24.9186C15.7304 24.6485 15.4154 24.2647 15.2293 23.8156C15.0433 23.3665 14.9946 22.8724 15.0895 22.3956C15.1843 21.9189 15.4184 21.481 15.7621 21.1372C16.1058 20.7935 16.5437 20.5594 17.0204 20.4646C17.4972 20.3698 17.9914 20.4184 18.4404 20.6044C18.8895 20.7905 19.2734 21.1055 19.5434 21.5096C19.8135 21.9138 19.9576 22.389 19.9576 22.8751C19.9569 23.5266 19.6977 24.1513 19.237 24.6121C18.7763 25.0728 18.1516 25.332 17.5 25.3328Z"/>
</mask>
<path d="M27.4782 6.18534C24.7979 5.00218 21.2543 4.35059 17.5 4.35059C13.7457 4.35059 10.2021 5.00218 7.52179 6.18534C4.60588 7.4725 3 9.27379 3 11.2575C3 11.964 3.47533 13.1065 4.20038 14.7692L4.21834 14.8104C4.43619 15.317 4.82982 15.7278 5.32669 15.9671C5.82356 16.2064 6.39019 16.2581 6.92214 16.1126L10.7337 15.0913C11.3225 14.9328 11.8245 14.5471 12.1294 14.019C12.4343 13.4909 12.5173 12.8633 12.3601 12.2741L12.2904 12.0136C12.2391 11.8221 12.229 11.6219 12.2608 11.4262C12.2926 11.2306 12.3655 11.0439 12.4748 10.8785C12.584 10.7131 12.7271 10.5727 12.8946 10.4667C13.0621 10.3606 13.2502 10.2913 13.4464 10.2634C16.1359 9.88968 18.8641 9.88968 21.5536 10.2634C21.7499 10.2914 21.938 10.3607 22.1055 10.4667C22.273 10.5728 22.4161 10.7132 22.5253 10.8786C22.6346 11.044 22.7075 11.2308 22.7393 11.4264C22.771 11.6221 22.7609 11.8223 22.7096 12.0138L22.6399 12.2744C22.4827 12.8636 22.5657 13.4911 22.8706 14.0193C23.1755 14.5474 23.6775 14.933 24.2663 15.0916L28.0779 16.1129C28.2752 16.166 28.4787 16.193 28.6831 16.1931C29.1298 16.193 29.5666 16.062 29.9395 15.8163C30.3125 15.5706 30.6053 15.2209 30.7817 14.8106L30.7998 14.7689C31.5248 13.1061 32 11.9639 32 11.2575C32 9.27379 30.3941 7.4725 27.4782 6.18534ZM29.1385 14.0439L29.1203 14.0856C29.0751 14.1938 28.9918 14.2817 28.8861 14.3326C28.7805 14.3834 28.6598 14.3938 28.547 14.3617L24.7355 13.3404C24.6109 13.3062 24.5049 13.2244 24.4403 13.1125C24.3757 13.0007 24.3579 12.8679 24.3906 12.743L24.4603 12.4824C24.578 12.0433 24.6012 11.5842 24.5283 11.1355C24.4555 10.6868 24.2883 10.2586 24.0378 9.87925C23.7873 9.4999 23.4591 9.17801 23.075 8.93483C22.6909 8.69166 22.2596 8.53272 21.8096 8.46853C18.9504 8.07061 16.0499 8.07061 13.1907 8.46853C12.7406 8.53271 12.3093 8.69163 11.9252 8.9348C11.5411 9.17797 11.213 9.49985 10.9624 9.8792C10.7119 10.2585 10.5447 10.6867 10.4719 11.1354C10.399 11.5842 10.4222 12.0433 10.5399 12.4824L10.6097 12.7429C10.6424 12.8678 10.6246 13.0006 10.56 13.1125C10.4954 13.2243 10.3893 13.3061 10.2648 13.3402L6.45298 14.3617C6.34019 14.3938 6.21953 14.3835 6.11387 14.3326C6.00821 14.2816 5.9249 14.1938 5.87972 14.0855L5.86177 14.0444C5.52544 13.2734 4.82564 11.6689 4.8125 11.2577C4.8125 10.0532 6.06681 8.80882 8.25376 7.84344C10.7088 6.75985 13.9922 6.16309 17.5 6.16309C21.0078 6.16309 24.2912 6.75985 26.7462 7.84344C28.9332 8.80882 30.1875 10.0532 30.1875 11.2553C30.1744 11.6688 29.4747 13.273 29.1385 14.0439ZM29.2107 21.5527L21.2924 16.5733V14.912C21.2919 14.497 21.1268 14.0991 20.8334 13.8056C20.5399 13.5122 20.142 13.3471 19.727 13.3466H15.2728C14.8578 13.3471 14.4599 13.5122 14.1664 13.8056C13.8729 14.0991 13.7079 14.497 13.7074 14.912V16.5733L5.78932 21.5527C5.00581 22.0455 4.57433 22.9174 4.57433 24.0083V27.7112C4.57505 28.3498 4.82904 28.962 5.28059 29.4136C5.73214 29.8652 6.34437 30.1192 6.98297 30.1199H28.017C28.6556 30.1192 29.2678 29.8652 29.7194 29.4136C30.1709 28.9621 30.425 28.3498 30.4257 27.7112V24.0083C30.4257 22.9174 29.9942 22.0453 29.2107 21.5527ZM28.6132 27.7112C28.613 27.8693 28.5501 28.0208 28.4384 28.1326C28.3266 28.2444 28.175 28.3072 28.017 28.3074H6.98297C6.82496 28.3071 6.67351 28.2442 6.56181 28.1325C6.45011 28.0207 6.38729 27.8692 6.38711 27.7112V24.0083C6.38711 23.7504 6.43486 23.2879 6.75442 23.087L15.0961 17.8413C15.2259 17.7597 15.3328 17.6465 15.4069 17.5124C15.481 17.3782 15.5199 17.2274 15.5199 17.0742V15.1591H19.4801V17.074C19.4801 17.2273 19.519 17.3781 19.5931 17.5123C19.6672 17.6464 19.7741 17.7596 19.9039 17.8412L28.2459 23.087C28.5654 23.288 28.6132 23.7504 28.6132 24.0083V27.7112ZM17.5 18.6049C16.6554 18.6049 15.8298 18.8554 15.1276 19.3246C14.4253 19.7938 13.878 20.4607 13.5548 21.241C13.2316 22.0212 13.147 22.8798 13.3118 23.7082C13.4766 24.5365 13.8833 25.2974 14.4805 25.8946C15.0777 26.4918 15.8385 26.8985 16.6669 27.0633C17.4952 27.228 18.3538 27.1435 19.1341 26.8203C19.9144 26.497 20.5813 25.9497 21.0505 25.2475C21.5197 24.5452 21.7701 23.7196 21.7701 22.8751C21.7688 21.743 21.3185 20.6576 20.518 19.857C19.7175 19.0565 18.6321 18.6062 17.5 18.6049ZM17.5 25.3328C17.0139 25.3328 16.5387 25.1886 16.1346 24.9186C15.7304 24.6485 15.4154 24.2647 15.2293 23.8156C15.0433 23.3665 14.9946 22.8724 15.0895 22.3956C15.1843 21.9189 15.4184 21.481 15.7621 21.1372C16.1058 20.7935 16.5437 20.5594 17.0204 20.4646C17.4972 20.3698 17.9914 20.4184 18.4404 20.6044C18.8895 20.7905 19.2734 21.1055 19.5434 21.5096C19.8135 21.9138 19.9576 22.389 19.9576 22.8751C19.9569 23.5266 19.6977 24.1513 19.237 24.6121C18.7763 25.0728 18.1516 25.332 17.5 25.3328Z" fill="white" stroke="#030E40" stroke-width="0.9" mask="url(#path-1-inside-1_101_382)"/>
</svg>
